<svg width="40" height="40" viewBox="0 0 40 40" fill="none" xmlns="http://www.w3.org/2000/svg">
<path d="M20 33.75C17.0517 33.75 14.93 33.7485 13.2758 33.5881C11.6406 33.4296 10.5946 33.125 9.75979 32.6004C8.80568 32.001 7.99889 31.1943 7.39937 30.2402C6.875 29.4054 6.57021 28.3594 6.41188 26.7242C6.25146 25.07 6.25 22.9483 6.25 20C6.25 17.0517 6.25146 14.93 6.41188 13.2758C6.57021 11.6406 6.875 10.5946 7.39937 9.75979C7.99887 8.80566 8.80566 7.99887 9.75979 7.39937C10.5946 6.875 11.6406 6.57021 13.2758 6.41188C14.9298 6.25146 17.0515 6.25 20 6.25C22.9483 6.25 25.07 6.25146 26.7242 6.41188C28.3594 6.57021 29.4054 6.875 30.2402 7.39937C31.1943 7.99889 32.001 8.80568 32.6004 9.75979C33.125 10.5946 33.4296 11.6406 33.5881 13.2758C33.7485 14.93 33.75 17.0517 33.75 20C33.75 22.9483 33.7485 25.07 33.5881 26.7242C33.4296 28.3594 33.125 29.4054 32.6004 30.2402C32.001 31.1942 31.1942 32.001 30.2402 32.6004C29.4054 33.125 28.3594 33.4296 26.7242 33.5881C25.07 33.7485 22.9483 33.75 20 33.75Z" stroke="#008080"/>
<path d="M20 26.25C23.4518 26.25 26.25 23.4518 26.25 20C26.25 16.5482 23.4518 13.75 20 13.75C16.5482 13.75 13.75 16.5482 13.75 20C13.75 23.4518 16.5482 26.25 20 26.25Z" stroke="#008080"/>
<path d="M28.125 13.75C29.1605 13.75 30 12.9105 30 11.875C30 10.8395 29.1605 10 28.125 10C27.0895 10 26.25 10.8395 26.25 11.875C26.25 12.9105 27.0895 13.75 28.125 13.75Z" fill="#008080"/>
</svg>
