<svg width="106" height="50" viewBox="0 0 106 50" fill="none" xmlns="http://www.w3.org/2000/svg">
<g filter="url(#filter0_d_244_358)">
<path d="M100.339 33.0318C99.6725 30.2307 96.5047 29.0021 92.1698 28.7564C74.9133 26.5941 60.7747 22.0729 50.1541 15.242C47.7199 12.752 43.7184 10.9992 38.2497 10C33.1645 10.5406 31.4639 13.6694 33.7147 17.9448C32.4364 18.9823 31.0693 20.1945 29.6132 21.5814C24.4612 24.1533 20.8599 19.9433 17.9422 16.6671C16.3082 14.7997 15.1411 13.44 13.8073 13.6038C13.3787 13.6776 12.9854 13.8845 12.6853 14.1941C12.3852 14.5037 12.1941 14.8997 12.14 15.3239C12.3567 17.3715 12.5068 20.0089 12.5568 23.1213C10.9719 26.5809 10.1644 30.3355 10.1893 34.1294C8.85811 36.7681 7.34282 39.3133 5.65426 41.7466C5.53202 41.9109 5.47936 42.1153 5.50734 42.3169C5.53532 42.5185 5.64177 42.7016 5.80431 42.8277C12.1567 48.4792 24.1445 50.7398 34.7317 49.7897C41.4009 49.0034 51.688 48.987 65.4432 49.7897C83.7833 49.1836 95.4543 44.7771 100.139 36.6848C100.539 35.5069 100.608 34.2451 100.339 33.0318ZM38.083 11.7364C43.2015 12.6865 46.8862 14.3082 49.0537 16.6507C49.5608 17.0048 50.0898 17.3276 50.6376 17.6172C43.8184 14.128 38.5498 13.9151 35.0152 16.962C33.6647 13.9315 34.4483 12.3425 38.083 11.6873V11.7364ZM13.974 15.242C14.5075 15.242 15.7914 16.749 16.6917 17.7974C19.6428 21.1883 24.0944 26.3483 30.4968 23.0557C32.1641 21.5159 33.8314 19.9925 35.3986 18.7967C38.8666 15.0781 44.7188 15.6842 52.7384 20.5822C54.8726 22.0729 61.3916 24.1697 71.5621 26.332C78.2613 28.2188 85.1018 29.5827 92.0197 30.4109C95.3543 30.7057 97.7218 31.2299 98.5054 32.9663C91.8363 37.8806 79.8652 40.8292 63.0756 41.8776C51.0711 38.8144 41.801 37.3237 35.482 37.3892C30.8803 32.18 23.6443 27.6588 13.974 23.9731C14.0059 23.8882 14.045 23.806 14.0907 23.7274C14.2006 20.9555 14.1003 18.1794 13.7906 15.4221C13.8907 15.242 13.9573 15.242 13.974 15.242ZM13.2904 25.4638C21.8103 28.74 28.296 32.5732 32.8477 36.9305C26.1786 35.8003 19.176 34.6863 11.8566 33.6543C11.9311 30.8599 12.414 28.0905 13.2904 25.431V25.4638ZM65.4265 48.0042C51.638 47.2834 41.2508 47.2998 34.5483 48.0042C22.8773 48.8068 13.7073 46.7592 7.42158 41.894C8.90429 39.7127 10.2463 37.4422 11.4397 35.0959C19.7762 36.3244 27.6958 37.6185 35.1152 38.8635C41.3175 38.6669 50.8877 40.3378 62.9756 43.3847C79.5317 42.3691 91.6029 39.4369 98.7389 34.67C98.7101 35.0275 98.66 35.383 98.5888 35.7347C94.2205 43.3519 82.9997 47.4636 65.4265 48.0042Z" fill="black"/>
</g>
<defs>
<filter id="filter0_d_244_358" x="0.5" y="0" width="105" height="50" filterUnits="userSpaceOnUse" color-interpolation-filters="sRGB">
<feFlood flood-opacity="0" result="BackgroundImageFix"/>
<feColorMatrix in="SourceAlpha" type="matrix" values="0 0 0 0 0 0 0 0 0 0 0 0 0 0 0 0 0 0 127 0" result="hardAlpha"/>
<feOffset dy="-5"/>
<feGaussianBlur stdDeviation="2.5"/>
<feComposite in2="hardAlpha" operator="out"/>
<feColorMatrix type="matrix" values="0 0 0 0 0 0 0 0 0 0 0 0 0 0 0 0 0 0 0.5 0"/>
<feBlend mode="normal" in2="BackgroundImageFix" result="effect1_dropShadow_244_358"/>
<feBlend mode="normal" in="SourceGraphic" in2="effect1_dropShadow_244_358" result="shape"/>
</filter>
</defs>
</svg>
