<svg width="24" height="24" viewBox="0 0 24 24" fill="none" xmlns="http://www.w3.org/2000/svg">
<g opacity="0.5" clip-path="url(#clip0_1281_771)">
<path fill-rule="evenodd" clip-rule="evenodd" d="M4.48969 17.3639C3.29695 16.0975 2.48796 14.495 2.16307 12.7549C1.8355 11.01 2.00371 9.20364 2.64715 7.55648C3.2851 5.91857 4.37424 4.51318 5.77781 3.51677C8.62555 1.49441 12.3745 1.49441 15.2221 3.51677C16.6258 4.51318 17.7149 5.91857 18.3528 7.55648C18.9963 9.20364 19.1645 11.01 18.8369 12.7549C18.5121 14.495 17.7031 16.0975 16.5102 17.3639C14.9307 19.0494 12.7634 20 10.4999 20C8.23663 20 6.06929 19.0494 4.48969 17.3639Z" stroke="#008080" stroke-width="2" stroke-linecap="round" stroke-linejoin="round"/>
<path d="M11.0241 5.02527C10.4008 5.08779 9.94902 5.61685 10.015 6.20696C10.0811 6.79707 10.64 7.22474 11.2634 7.16222L11.0241 5.02527ZM13.8259 8.59134C14.0703 9.13784 14.7363 9.39327 15.3136 9.1619C15.8908 8.93057 16.1606 8.30005 15.9162 7.75359L13.8259 8.59134ZM18.5482 16.3199C18.1047 15.9008 17.386 15.9013 16.9432 16.3214C16.5002 16.7413 16.501 17.4216 16.9446 17.8408L18.5482 16.3199ZM22.0717 22.6859C22.5154 23.1052 23.234 23.1046 23.6769 22.6846C24.1197 22.2646 24.1191 21.5844 23.6754 21.165L22.0717 22.6859ZM11.2634 7.16222C12.3567 7.05254 13.3973 7.63282 13.8259 8.59134L15.9162 7.75359C15.098 5.9237 13.1116 4.81588 11.0241 5.02527L11.2634 7.16222ZM16.9446 17.8408L22.0717 22.6859L23.6754 21.165L18.5482 16.3199L16.9446 17.8408Z" fill="#008080"/>
</g>
<defs>
<clipPath id="clip0_1281_771">
<rect width="24" height="24" fill="white"/>
</clipPath>
</defs>
</svg>
