<svg width="24" height="24" viewBox="0 0 24 24" fill="none" xmlns="http://www.w3.org/2000/svg">
<path fill-rule="evenodd" clip-rule="evenodd" d="M0 3C0 2.44772 0.447715 2 1 2H4.4914C5.83084 2 7.008 2.88793 7.37597 4.17584L8.15485 6.90191L20.5474 5.35972C22.6115 5.10285 24.3043 6.97333 23.8433 9.00162L22.3289 15.6649C22.0185 17.0307 20.8042 18 19.4035 18H11.5086C10.1692 18 8.992 17.1121 8.62403 15.8242L5.45292 4.72528C5.33026 4.29598 4.93788 4 4.4914 4H1C0.447715 4 0 3.55228 0 3ZM8.71091 8.84813L10.5471 15.2747C10.6697 15.704 11.0621 16 11.5086 16H19.4035C19.8704 16 20.2752 15.6769 20.3787 15.2216L21.8931 8.55837C22.0467 7.88228 21.4825 7.25879 20.7944 7.34441L8.71091 8.84813ZM10 21C10 20.4477 10.4477 20 11 20H12C12.5523 20 13 20.4477 13 21C13 21.5523 12.5523 22 12 22H11C10.4477 22 10 21.5523 10 21ZM18 21C18 20.4477 18.4477 20 19 20H20C20.5523 20 21 20.4477 21 21C21 21.5523 20.5523 22 20 22H19C18.4477 22 18 21.5523 18 21Z" fill="white"/>
</svg>
