<svg width="24" height="26" viewBox="0 0 24 26" fill="none" xmlns="http://www.w3.org/2000/svg">
<path fill-rule="evenodd" clip-rule="evenodd" d="M8.03409 10.9278H3.678C3.03882 10.9226 2.42372 11.1714 1.96802 11.6196C1.5123 12.0678 1.25332 12.6787 1.24805 13.3178V22.3633C1.25987 23.6938 2.34758 24.763 3.678 24.7518H8.03409C8.67322 24.7572 9.28839 24.5084 9.74412 24.0602C10.1999 23.612 10.4588 23.0011 10.464 22.3618V13.3178C10.4588 12.6787 10.1999 12.0678 9.74412 11.6196C9.28839 11.1714 8.67322 10.9226 8.03409 10.9278Z" stroke="black" stroke-width="2" stroke-linecap="round" stroke-linejoin="round"/>
<path fill-rule="evenodd" clip-rule="evenodd" d="M8.03409 1.71186H3.678C2.37433 1.67571 1.28735 2.70154 1.24805 4.00511V5.56262C1.28735 6.8662 2.37433 7.89204 3.678 7.85586H8.03409C9.3377 7.89204 10.4247 6.8662 10.464 5.56262V4.00511C10.4247 2.70154 9.3377 1.67571 8.03409 1.71186Z" stroke="black" stroke-width="2" stroke-linecap="round" stroke-linejoin="round"/>
<path fill-rule="evenodd" clip-rule="evenodd" d="M15.9661 15.537H20.3206C20.9601 15.5427 21.5756 15.294 22.0316 14.8458C22.4876 14.3975 22.7469 13.7865 22.7521 13.147V4.10299C22.7469 3.46383 22.4879 2.85293 22.0322 2.40471C21.5765 1.95649 20.9613 1.70766 20.3222 1.71297H15.9661C15.327 1.70766 14.7118 1.95649 14.2561 2.40471C13.8003 2.85293 13.5414 3.46383 13.5361 4.10299V13.147C13.5414 13.7861 13.8003 14.397 14.2561 14.8452C14.7118 15.2934 15.327 15.5423 15.9661 15.537Z" stroke="black" stroke-width="2" stroke-linecap="round" stroke-linejoin="round"/>
<path fill-rule="evenodd" clip-rule="evenodd" d="M15.9661 24.7523H20.3206C21.6249 24.7894 22.7128 23.7633 22.7521 22.4591V20.9016C22.7128 19.598 21.6258 18.5723 20.3222 18.6083H15.9661C14.6625 18.5723 13.5755 19.598 13.5361 20.9016V22.4576C13.5745 23.7618 14.6619 24.7884 15.9661 24.7523Z" stroke="black" stroke-width="2" stroke-linecap="round" stroke-linejoin="round"/>
</svg>
