<svg width="85" height="50" viewBox="0 0 85 50" fill="none" xmlns="http://www.w3.org/2000/svg">
<g clip-path="url(#clip0_1341_2020)">
<path d="M32.916 2.08301H45.416V10.1663C45.416 10.7852 45.1702 11.3787 44.7326 11.8163C44.295 12.2538 43.7015 12.4997 43.0827 12.4997H35.2493C34.6305 12.4997 34.037 12.2538 33.5994 11.8163C33.1618 11.3787 32.916 10.7852 32.916 10.1663V2.08301Z" fill="#A62639" fill-opacity="0.3"/>
<path d="M83.7705 27.0833L80.5622 23.875L77.0413 13.2708C76.7654 12.4394 76.2343 11.716 75.5237 11.2036C74.8131 10.6912 73.9591 10.4159 73.083 10.4167H59.9997V6.25C59.9997 4.5924 59.3412 3.00269 58.1691 1.83058C56.997 0.65848 55.4073 0 53.7497 0H24.583C22.9254 0 21.3357 0.65848 20.1636 1.83058C18.9915 3.00269 18.333 4.5924 18.333 6.25V37.5C18.333 39.1576 18.9915 40.7473 20.1636 41.9194C21.3357 43.0915 22.9254 43.75 24.583 43.75H26.958C27.4651 45.7139 28.671 47.4254 30.3497 48.5638C32.0284 49.7021 34.0646 50.1892 36.0768 49.9336C38.0889 49.678 39.9387 48.6974 41.2795 47.1755C42.6203 45.6536 43.3601 43.6949 43.3601 41.6667C43.3601 39.6384 42.6203 37.6797 41.2795 36.1578C39.9387 34.636 38.0889 33.6553 36.0768 33.3997C34.0646 33.1442 32.0284 33.6312 30.3497 34.7696C28.671 35.9079 27.4651 37.6195 26.958 39.5833H24.583C24.0305 39.5833 23.5006 39.3638 23.1099 38.9731C22.7192 38.5824 22.4997 38.0525 22.4997 37.5V6.25C22.4997 5.69747 22.7192 5.16756 23.1099 4.77686C23.5006 4.38616 24.0305 4.16667 24.583 4.16667H53.7497C54.3022 4.16667 54.8321 4.38616 55.2228 4.77686C55.6135 5.16756 55.833 5.69747 55.833 6.25V39.5833H49.583C49.0305 39.5833 48.5006 39.8028 48.1099 40.1935C47.7192 40.5842 47.4997 41.1141 47.4997 41.6667C47.4997 42.2192 47.7192 42.7491 48.1099 43.1398C48.5006 43.5305 49.0305 43.75 49.583 43.75H62.3747C62.8544 45.5154 63.9018 47.0738 65.3551 48.1849C66.8084 49.2959 68.587 49.8979 70.4163 49.8979C72.2457 49.8979 74.0243 49.2959 75.4776 48.1849C76.9309 47.0738 77.9783 45.5154 78.458 43.75H80.833C81.9381 43.75 82.9979 43.311 83.7793 42.5296C84.5607 41.7482 84.9997 40.6884 84.9997 39.5833V30.0208C84.995 28.9175 84.553 27.8611 83.7705 27.0833ZM34.9997 37.5C35.8238 37.5 36.6293 37.7444 37.3145 38.2022C37.9998 38.66 38.5338 39.3108 38.8492 40.0722C39.1645 40.8335 39.2471 41.6713 39.0863 42.4795C38.9255 43.2878 38.5287 44.0302 37.946 44.6129C37.3632 45.1957 36.6208 45.5925 35.8125 45.7533C35.0043 45.914 34.1665 45.8315 33.4052 45.5162C32.6438 45.2008 31.9931 44.6667 31.5352 43.9815C31.0774 43.2963 30.833 42.4908 30.833 41.6667C30.833 40.5616 31.272 39.5018 32.0534 38.7204C32.8348 37.939 33.8946 37.5 34.9997 37.5ZM75.8538 22.9167H68.333V14.5833H73.083L75.8538 22.9167ZM70.4163 45.8333C69.5923 45.8333 68.7867 45.589 68.1015 45.1311C67.4163 44.6733 66.8822 44.0225 66.5668 43.2612C66.2515 42.4998 66.169 41.662 66.3297 40.8538C66.4905 40.0455 66.8873 39.3031 67.4701 38.7204C68.0528 38.1377 68.7952 37.7408 69.6035 37.5801C70.4117 37.4193 71.2495 37.5018 72.0109 37.8172C72.7722 38.1325 73.423 38.6666 73.8808 39.3518C74.3386 40.037 74.583 40.8426 74.583 41.6667C74.583 42.7717 74.144 43.8315 73.3626 44.6129C72.5812 45.3943 71.5214 45.8333 70.4163 45.8333ZM80.833 39.5833H78.458C77.9783 37.818 76.9309 36.2595 75.4776 35.1485C74.0243 34.0374 72.2457 33.4354 70.4163 33.4354C68.587 33.4354 66.8084 34.0374 65.3551 35.1485C63.9018 36.2595 62.8544 37.818 62.3747 39.5833H59.9997V14.5833H64.1663V25C64.1663 25.5525 64.3858 26.0824 64.7765 26.4731C65.1672 26.8638 65.6971 27.0833 66.2497 27.0833H77.8955L80.833 30.0208V39.5833Z" fill="#008080"/>
<path d="M14.583 39.6667H10.4163C9.86381 39.6667 9.3339 39.4472 8.9432 39.0565C8.5525 38.6658 8.33301 38.1359 8.33301 37.5833C8.33301 37.0308 8.5525 36.5009 8.9432 36.1102C9.3339 35.7195 9.86381 35.5 10.4163 35.5H14.583C15.1355 35.5 15.6654 35.7195 16.0561 36.1102C16.4468 36.5009 16.6663 37.0308 16.6663 37.5833C16.6663 38.1359 16.4468 38.6658 16.0561 39.0565C15.6654 39.4472 15.1355 39.6667 14.583 39.6667Z" fill="#A62639" fill-opacity="0.3"/>
<path d="M14.5837 31.3327H6.25033C5.69779 31.3327 5.16789 31.1132 4.77719 30.7225C4.38649 30.3318 4.16699 29.8019 4.16699 29.2493C4.16699 28.6968 4.38649 28.1669 4.77719 27.7762C5.16789 27.3855 5.69779 27.166 6.25033 27.166H14.5837C15.1362 27.166 15.6661 27.3855 16.0568 27.7762C16.4475 28.1669 16.667 28.6968 16.667 29.2493C16.667 29.8019 16.4475 30.3318 16.0568 30.7225C15.6661 31.1132 15.1362 31.3327 14.5837 31.3327Z" fill="#A62639" fill-opacity="0.3"/>
<path d="M14.5833 22.9997H2.08333C1.5308 22.9997 1.0009 22.7802 0.610194 22.3895C0.219493 21.9988 0 21.4689 0 20.9163C0 20.3638 0.219493 19.8339 0.610194 19.4432C1.0009 19.0525 1.5308 18.833 2.08333 18.833H14.5833C15.1359 18.833 15.6658 19.0525 16.0565 19.4432C16.4472 19.8339 16.6667 20.3638 16.6667 20.9163C16.6667 21.4689 16.4472 21.9988 16.0565 22.3895C15.6658 22.7802 15.1359 22.9997 14.5833 22.9997Z" fill="#A62639" fill-opacity="0.3"/>
</g>
<defs>
<clipPath id="clip0_1341_2020">
<rect width="85" height="50" fill="white"/>
</clipPath>
</defs>
</svg>
