<svg width="32" height="32" viewBox="0 0 32 32" fill="none" xmlns="http://www.w3.org/2000/svg">
<g clip-path="url(#clip0_1917_2544)">
<path d="M25.1335 7.39967C24.9474 7.17233 24.7136 6.98877 24.4486 6.86202C24.1836 6.73528 23.8939 6.66847 23.6001 6.66634H22.8001L23.0001 5.53301C23.0376 5.26368 23.0216 4.9896 22.9529 4.72648C22.8843 4.46336 22.7644 4.21637 22.6001 3.99967C22.2172 3.5943 21.6907 3.35499 21.1335 3.33301H5.20014C4.84652 3.33301 4.50738 3.47348 4.25733 3.72353C4.00729 3.97358 3.86681 4.31272 3.86681 4.66634C3.86681 5.01996 4.00729 5.3591 4.25733 5.60915C4.50738 5.8592 4.84652 5.99967 5.20014 5.99967H20.2001L17.5335 21.2663C17.2325 21.6913 17.007 22.1649 16.8668 22.6663H13.8001C13.51 21.7076 12.9191 20.8676 12.1147 20.2706C11.3103 19.6735 10.3352 19.3512 9.33348 19.3512C8.33175 19.3512 7.35662 19.6735 6.55224 20.2706C5.74786 20.8676 5.15692 21.7076 4.86681 22.6663H4.13348L4.46681 20.733C4.52529 20.3886 4.44631 20.0351 4.24684 19.7484C4.04737 19.4616 3.74335 19.2646 3.40014 19.1997C3.05578 19.1412 2.70222 19.2202 2.41549 19.4196C2.12875 19.6191 1.93174 19.9231 1.86681 20.2663L1.33348 23.133C1.29251 23.4072 1.31314 23.6871 1.39386 23.9523C1.47459 24.2175 1.61337 24.4615 1.80014 24.6663C1.9721 24.8713 2.1861 25.0369 2.42764 25.1519C2.66919 25.2669 2.93264 25.3287 3.20014 25.333H4.86681C5.15692 26.2918 5.74786 27.1318 6.55224 27.7288C7.35662 28.3258 8.33175 28.6481 9.33348 28.6481C10.3352 28.6481 11.3103 28.3258 12.1147 27.7288C12.9191 27.1318 13.51 26.2918 13.8001 25.333H16.8668C17.1569 26.2918 17.7479 27.1318 18.5522 27.7288C19.3566 28.3258 20.3318 28.6481 21.3335 28.6481C22.3352 28.6481 23.3103 28.3258 24.1147 27.7288C24.9191 27.1318 25.51 26.2918 25.8001 25.333H27.1335C27.6345 25.3235 28.1162 25.1379 28.4941 24.8088C28.872 24.4796 29.1219 24.028 29.2001 23.533L30.6668 14.9997L25.1335 7.39967ZM9.33348 25.9997C8.80304 25.9997 8.29433 25.789 7.91926 25.4139C7.54419 25.0388 7.33348 24.5301 7.33348 23.9997C7.33348 23.4692 7.54419 22.9605 7.91926 22.5855C8.29433 22.2104 8.80304 21.9997 9.33348 21.9997C9.86391 21.9997 10.3726 22.2104 10.7477 22.5855C11.1228 22.9605 11.3335 23.4692 11.3335 23.9997C11.3335 24.5301 11.1228 25.0388 10.7477 25.4139C10.3726 25.789 9.86391 25.9997 9.33348 25.9997ZM22.3335 9.33301H23.2001L27.1335 14.6663H21.4001L22.3335 9.33301ZM21.3335 25.9997C20.803 25.9997 20.2943 25.789 19.9193 25.4139C19.5442 25.0388 19.3335 24.5301 19.3335 23.9997C19.3335 23.4692 19.5442 22.9605 19.9193 22.5855C20.2943 22.2104 20.803 21.9997 21.3335 21.9997C21.8639 21.9997 22.3726 22.2104 22.7477 22.5855C23.1228 22.9605 23.3335 23.4692 23.3335 23.9997C23.3335 24.5301 23.1228 25.0388 22.7477 25.4139C22.3726 25.789 21.8639 25.9997 21.3335 25.9997ZM26.6668 22.6663H25.8001C25.5133 21.7042 24.9237 20.8601 24.1191 20.2597C23.3144 19.6592 22.3375 19.3342 21.3335 19.333H20.6001L20.9335 17.2663H27.5335L26.6668 22.6663Z" fill="#008080"/>
<path d="M2.66683 9.99967H9.3335C9.68712 9.99967 10.0263 9.8592 10.2763 9.60915C10.5264 9.3591 10.6668 9.01996 10.6668 8.66634C10.6668 8.31272 10.5264 7.97358 10.2763 7.72353C10.0263 7.47348 9.68712 7.33301 9.3335 7.33301H2.66683C2.31321 7.33301 1.97407 7.47348 1.72402 7.72353C1.47397 7.97358 1.3335 8.31272 1.3335 8.66634C1.3335 9.01996 1.47397 9.3591 1.72402 9.60915C1.97407 9.8592 2.31321 9.99967 2.66683 9.99967Z" fill="#008080"/>
<path d="M10 12.6663C10 12.3127 9.85952 11.9736 9.60948 11.7235C9.35943 11.4735 9.02029 11.333 8.66667 11.333H3.33333C2.97971 11.333 2.64057 11.4735 2.39052 11.7235C2.14048 11.9736 2 12.3127 2 12.6663C2 13.02 2.14048 13.3591 2.39052 13.6091C2.64057 13.8592 2.97971 13.9997 3.33333 13.9997H8.66667C9.02029 13.9997 9.35943 13.8592 9.60948 13.6091C9.85952 13.3591 10 13.02 10 12.6663Z" fill="#008080"/>
<path d="M4.00033 15.333C3.6467 15.333 3.30756 15.4735 3.05752 15.7235C2.80747 15.9736 2.66699 16.3127 2.66699 16.6663C2.66699 17.02 2.80747 17.3591 3.05752 17.6091C3.30756 17.8592 3.6467 17.9997 4.00033 17.9997H8.00032C8.35395 17.9997 8.69308 17.8592 8.94313 17.6091C9.19318 17.3591 9.33366 17.02 9.33366 16.6663C9.33366 16.3127 9.19318 15.9736 8.94313 15.7235C8.69308 15.4735 8.35395 15.333 8.00032 15.333H4.00033Z" fill="#008080"/>
</g>
<defs>
<clipPath id="clip0_1917_2544">
<rect width="32" height="32" fill="white"/>
</clipPath>
</defs>
</svg>
