<svg width="24" height="24" viewBox="0 0 24 24" fill="none" xmlns="http://www.w3.org/2000/svg">
<path fill-rule="evenodd" clip-rule="evenodd" d="M20.4629 1.68396L22.5599 3.48209C22.7624 3.68732 22.8766 3.97398 22.875 4.27345C22.8735 4.5729 22.7565 4.8582 22.5519 5.06103L20.9584 7.11438L15.5364 14.0776C15.4415 14.1946 15.3152 14.2768 15.1749 14.3127L12.3628 14.999C11.9939 15.0189 11.6727 14.7301 11.625 14.3357V11.224C11.6345 11.0739 11.6906 10.9317 11.7843 10.8202L17.1058 4.34149L18.9323 1.99254C19.2936 1.48249 19.9546 1.34924 20.4629 1.68396Z" stroke="#008080" stroke-width="2" stroke-linecap="round" stroke-linejoin="round"/>
<path d="M12.375 4.32692C12.9721 4.32692 13.4563 3.86199 13.4563 3.28846C13.4563 2.71494 12.9721 2.25 12.375 2.25V4.32692ZM8.33821 3.28846V2.25H8.33562L8.33821 3.28846ZM2.9563 8.48082H4.03758V8.47846L2.9563 8.48082ZM2.9563 16.2693L4.03758 16.2715V16.2693H2.9563ZM8.33821 21.4615L8.33562 22.5H8.33821V21.4615ZM16.4118 21.4615V22.5H16.4144L16.4118 21.4615ZM21.7937 16.2693H20.7124V16.2715L21.7937 16.2693ZM22.875 11.077C22.875 10.5033 22.3909 10.0385 21.7937 10.0385C21.1965 10.0385 20.7124 10.5033 20.7124 11.077H22.875ZM6.99309 16.5296C6.39592 16.5296 5.91181 16.9944 5.91181 17.568C5.91181 18.1415 6.39592 18.6065 6.99309 18.6065V16.5296ZM17.7583 18.6065C18.3555 18.6065 18.8396 18.1415 18.8396 17.568C18.8396 16.9944 18.3555 16.5296 17.7583 16.5296V18.6065ZM12.375 2.25H8.33821V4.32692H12.375V2.25ZM8.33562 2.25C4.75959 2.25825 1.86736 5.04859 1.87502 8.48303L4.03758 8.47846C4.03248 6.19098 5.95892 4.33241 8.34081 4.32692L8.33562 2.25ZM1.87502 8.48082V16.2693H4.03758V8.48082H1.87502ZM1.87502 16.2669C1.86736 19.7013 4.75959 22.4917 8.33562 22.5L8.34081 20.4231C5.95892 20.4175 4.03248 18.559 4.03758 16.2715L1.87502 16.2669ZM8.33821 22.5H16.4118V20.4231H8.33821V22.5ZM16.4144 22.5C19.9904 22.4917 22.8826 19.7013 22.875 16.2669L20.7124 16.2715C20.7175 18.559 18.791 20.4175 16.4092 20.4231L16.4144 22.5ZM22.875 16.2693V11.077H20.7124V16.2693H22.875ZM6.99309 18.6065H17.7583V16.5296H6.99309V18.6065Z" fill="#008080"/>
</svg>
