<svg width="28" height="24" viewBox="0 0 28 24" fill="none" xmlns="http://www.w3.org/2000/svg">
<g clip-path="url(#clip0_1427_2634)">
<g clip-path="url(#clip1_1427_2634)">
<path d="M22.6379 23.4143L14.0645 14.8407L5.49116 23.4143C4.77612 24.1293 3.64311 24.1959 2.7967 23.5347L2.65022 23.4013C1.8693 22.6204 1.86929 21.3543 2.65022 20.5733L11.2238 12L2.65022 3.42666C1.93518 2.71163 1.86859 1.57858 2.52986 0.732166L2.66322 0.585686C3.44413 -0.195229 4.7103 -0.19523 5.49122 0.585693L14.0645 9.15926L22.6379 0.585687C23.3529 -0.129345 24.4859 -0.195938 25.3323 0.465326L25.4788 0.598722C26.2597 1.37963 26.2597 2.64574 25.4788 3.42667L16.9053 12L25.4788 20.5733C26.1939 21.2884 26.2605 22.4214 25.5992 23.2678L25.4658 23.4143C24.6849 24.1952 23.4188 24.1952 22.6379 23.4143ZM24.0358 1.00013C24.0412 1.00004 24.0465 1 24.0518 1L24.0358 1.00013ZM23.9031 1.01106L23.9469 1.00549C23.9324 1.00701 23.9177 1.00887 23.9031 1.01106ZM24.1992 1.01087L24.1814 1.00839C24.1875 1.00917 24.1932 1.00997 24.1992 1.01087ZM24.3249 1.03782L24.3093 1.03354C24.3147 1.03497 24.3195 1.0363 24.3249 1.03782ZM23.7761 1.03859L23.83 1.02479C23.812 1.02887 23.794 1.03347 23.7761 1.03859ZM23.663 1.07846L23.7045 1.062C23.6907 1.06712 23.6768 1.07263 23.663 1.07846ZM24.4409 1.07852C24.4385 1.07751 24.4359 1.07645 24.4409 1.07852V1.07852ZM24.5582 1.13743L24.6645 1.20963C24.6201 1.17511 24.5735 1.14484 24.5252 1.11884L24.5582 1.13743ZM23.546 1.13718L23.5781 1.11906C23.5676 1.12474 23.5567 1.13085 23.546 1.13718ZM3.18336 1.53939L3.20197 1.50636L3.27418 1.4C3.23965 1.44441 3.20936 1.49106 3.18336 1.53939ZM3.128 1.66137L3.14301 1.62365C3.1377 1.63624 3.13272 1.64877 3.128 1.66137ZM3.08973 1.78895L3.10237 1.73965C3.09783 1.75564 3.09355 1.77226 3.08973 1.78895ZM3.07008 1.90713L3.07539 1.86527C3.07335 1.87899 3.07156 1.89305 3.07008 1.90713ZM4.07722 22.0003L14.0645 12.0128L24.0518 22.0003L24.0649 21.9873L14.0773 12L24.0649 2.01269L24.0518 1.99965L14.0645 11.9872L4.07722 1.99965L4.06416 2.01269L14.0518 12L4.06416 21.9873L4.07722 22.0003ZM3.06465 2.02867L3.06458 1.99968C3.06446 2.00929 3.06449 2.01898 3.06465 2.02867ZM3.07557 2.16141L3.07002 2.1176C3.07154 2.13213 3.07338 2.14679 3.07557 2.16141ZM3.1031 2.28841L3.0893 2.23452C3.09338 2.25253 3.09798 2.27052 3.1031 2.28841ZM3.14295 2.40157L3.12654 2.35996C3.13165 2.37381 3.13712 2.38774 3.14295 2.40157ZM3.20167 2.51858L3.1836 2.48638C3.18928 2.49694 3.19534 2.50781 3.20167 2.51858ZM24.9454 21.5136L24.9304 21.4866C24.9356 21.4957 24.9405 21.5044 24.9454 21.5136ZM25.0025 21.64L24.9891 21.6056C24.9938 21.6171 24.9982 21.6284 25.0025 21.64ZM25.0397 21.7655L25.031 21.7299C25.0341 21.7417 25.037 21.7536 25.0397 21.7655ZM25.0595 21.8864L25.0562 21.8577C25.0574 21.8673 25.0585 21.8768 25.0595 21.8864ZM25.0641 22.0163L25.0645 21.9873C25.0645 21.997 25.0644 22.0066 25.0641 22.0163ZM25.0537 22.1347L25.0562 22.1169C25.0554 22.1229 25.0546 22.1287 25.0537 22.1347ZM25.0267 22.2604L25.031 22.2447C25.0295 22.2501 25.0282 22.255 25.0267 22.2604ZM24.986 22.3763C24.9881 22.3714 24.987 22.374 24.986 22.3763V22.3763ZM24.9271 22.4936L24.8549 22.6C24.8894 22.5556 24.9197 22.5089 24.9457 22.4606L24.9271 22.4936ZM23.5786 22.8812L23.5455 22.8626L23.4392 22.7904C23.4836 22.8249 23.5302 22.8552 23.5786 22.8812ZM4.55091 22.8809L4.57795 22.8658C4.56887 22.8711 4.56012 22.876 4.55091 22.8809ZM24.5255 22.8809L24.5526 22.8658C24.5435 22.8711 24.5347 22.876 24.5255 22.8809ZM3.60389 22.8812L3.57087 22.8626L3.46455 22.7904C3.50895 22.8249 3.55555 22.8552 3.60389 22.8812ZM24.4031 22.9365L24.4335 22.9245C24.4235 22.9287 24.4133 22.9327 24.4031 22.9365ZM23.7047 22.9381L23.6628 22.9215C23.6768 22.9274 23.6907 22.9329 23.7047 22.9381ZM4.42451 22.938L4.45893 22.9245C4.44746 22.9293 4.43611 22.9337 4.42451 22.938ZM3.7259 22.9365L3.68818 22.9215C3.70077 22.9268 3.7133 22.9318 3.7259 22.9365ZM24.2753 22.9748L24.3093 22.9665C24.2981 22.9694 24.2865 22.9723 24.2753 22.9748ZM23.8301 22.9752L23.7759 22.9614C23.794 22.9665 23.812 22.9711 23.8301 22.9752ZM4.29902 22.9752L4.3346 22.9665C4.32276 22.9696 4.31095 22.9725 4.29902 22.9752ZM3.85346 22.9748L3.80415 22.9622C3.82014 22.9667 3.83677 22.971 3.85346 22.9748ZM24.1531 22.9949L24.1814 22.9916C24.1721 22.9928 24.1625 22.9939 24.1531 22.9949ZM23.9511 22.9949L23.9032 22.9889C23.9191 22.9913 23.935 22.9933 23.9511 22.9949ZM4.17811 22.9949L4.20679 22.9916C4.1972 22.9929 4.18773 22.994 4.17811 22.9949ZM3.97565 22.9949L3.92982 22.9891C3.94487 22.9914 3.96023 22.9933 3.97565 22.9949ZM4.10621 22.9996L4.04804 22.9996C4.06743 23.0001 4.08682 23.0001 4.10621 22.9996ZM24.081 22.9996L24.0228 22.9996C24.0422 23.0001 24.0616 23.0001 24.081 22.9996Z" fill="black"/>
</g>
</g>
<defs>
<clipPath id="clip0_1427_2634">
<rect width="27.871" height="24" fill="white" transform="translate(0.0645142)"/>
</clipPath>
<clipPath id="clip1_1427_2634">
<rect width="24" height="24" fill="white" transform="translate(26.0645 24) rotate(-180)"/>
</clipPath>
</defs>
</svg>
