<svg width="86" height="86" viewBox="0 0 86 86" fill="none" xmlns="http://www.w3.org/2000/svg">
<g opacity="0.2">
<path d="M54.18 37.9878C69.4853 27.1438 61.9872 2.84875 43 2.6875C23.9994 2.82188 16.5147 27.1437 31.8334 37.9609C24.5688 40.3359 18.2398 44.9444 13.7492 51.129C9.25854 57.3135 6.83569 64.7583 6.82625 72.4013C6.82625 84.495 13.3972 85.5028 24.4831 80.1144C38.7134 73.53 47.3269 73.5434 61.5438 80.1144C71.8772 85.0997 79.2678 85.1669 79.2006 72.4013C79.1846 64.7612 76.7572 57.3213 72.2644 51.1418C67.7716 44.9625 61.4427 40.359 54.18 37.9878ZM28.9578 22.1316C28.956 20.2857 29.3179 18.4577 30.0226 16.7517C30.7273 15.0457 31.7612 13.4952 33.0651 12.1888C34.369 10.8824 35.9175 9.84555 37.6222 9.13756C39.3268 8.42957 41.1542 8.06426 43 8.0625C61.6244 8.84188 61.6244 35.3809 43 36.1469C39.2815 36.1433 35.716 34.6664 33.0841 32.0396C30.4522 29.4128 28.9685 25.85 28.9578 22.1316ZM72.7237 77.7763C71.5547 78.5556 67.1741 76.6744 63.6669 75.1694C57.9694 72.7372 50.8878 69.7138 43.0134 69.7138C35.1391 69.7138 28.0709 72.7372 22.3734 75.1694C18.8528 76.6744 14.4856 78.5556 13.3166 77.7763C13.1284 77.6553 12.2012 76.8222 12.2012 72.4013C12.2012 64.2294 15.4475 56.3922 21.2259 50.6137C27.0043 44.8353 34.8415 41.5891 43.0134 41.5891C51.1853 41.5891 59.0225 44.8353 64.8009 50.6137C70.5793 56.3922 73.8256 64.2294 73.8256 72.4013C73.8256 76.8222 72.8984 77.6553 72.7237 77.7763Z" fill="white"/>
</g>
<path d="M35 43C35 45.2092 33.2091 47 31 47C28.7909 47 27 45.2092 27 43C27 40.7908 28.7909 39 31 39C33.2091 39 35 40.7908 35 43Z" fill="white"/>
<path d="M47 43C47 45.2092 45.2092 47 43 47C40.7908 47 39 45.2092 39 43C39 40.7908 40.7908 39 43 39C45.2092 39 47 40.7908 47 43Z" fill="white"/>
<path d="M59 43C59 45.2092 57.2092 47 55 47C52.7908 47 51 45.2092 51 43C51 40.7908 52.7908 39 55 39C57.2092 39 59 40.7908 59 43Z" fill="white"/>
</svg>
