<svg width="325" height="82" viewBox="0 0 325 82" fill="none" xmlns="http://www.w3.org/2000/svg">
<path d="M146.44 14L140.04 42H139C137.64 42 136.587 41.7333 135.84 41.2C135.12 40.64 134.56 39.72 134.16 38.44L129.88 25L125.6 38.44C125.2 39.72 124.627 40.64 123.88 41.2C123.133 41.7333 122.093 42 120.76 42H119.72L113.32 14H116.08L121.84 39.44C122.187 39.3333 122.48 39.1467 122.72 38.88C122.96 38.6133 123.16 38.2267 123.32 37.72L129.88 17.92L136.44 37.72C136.627 38.2267 136.827 38.6133 137.04 38.88C137.28 39.1467 137.56 39.32 137.88 39.4L143.64 14H146.44ZM164.839 33H152.199L149.439 42H146.559L153.799 18.6C154.386 16.7067 155.013 15.4 155.679 14.68C156.373 13.9333 157.319 13.56 158.519 13.56C159.719 13.56 160.666 13.9333 161.359 14.68C162.053 15.4 162.693 16.7067 163.279 18.6L170.519 42H167.599L164.839 33ZM164.159 30.76L160.439 18.64C160.146 17.7333 159.866 17.1067 159.599 16.76C159.333 16.4133 158.973 16.24 158.519 16.24C158.093 16.24 157.746 16.4133 157.479 16.76C157.213 17.1067 156.933 17.7333 156.639 18.64L152.919 30.76H164.159ZM182.785 42C179.719 42 177.439 41.32 175.945 39.96C174.479 38.5733 173.745 36.4667 173.745 33.64V14H176.625V33.64C176.625 35.6933 177.119 37.2133 178.105 38.2C179.119 39.1867 180.679 39.68 182.785 39.68H191.785V42H182.785ZM208.052 24.76C210.052 25.0267 211.585 25.6933 212.652 26.76C213.719 27.8267 214.625 29.5867 215.372 32.04L218.172 42H215.292L212.532 32.28C212.159 30.9733 211.719 29.96 211.212 29.24C210.732 28.4933 210.079 27.9467 209.252 27.6C208.425 27.2533 207.319 27.0267 205.932 26.92L199.852 33.2V42H196.972V14H199.852V29.72L214.892 14H218.452L208.052 24.76ZM252.221 14L245.821 42H244.781C243.421 42 242.368 41.7333 241.621 41.2C240.901 40.64 240.341 39.72 239.941 38.44L235.661 25L231.381 38.44C230.981 39.72 230.408 40.64 229.661 41.2C228.915 41.7333 227.875 42 226.541 42H225.501L219.101 14H221.861L227.621 39.44C227.968 39.3333 228.261 39.1467 228.501 38.88C228.741 38.6133 228.941 38.2267 229.101 37.72L235.661 17.92L242.221 37.72C242.408 38.2267 242.608 38.6133 242.821 38.88C243.061 39.1467 243.341 39.32 243.661 39.4L249.421 14H252.221ZM270.621 33H257.981L255.221 42H252.341L259.581 18.6C260.167 16.7067 260.794 15.4 261.461 14.68C262.154 13.9333 263.101 13.56 264.301 13.56C265.501 13.56 266.447 13.9333 267.141 14.68C267.834 15.4 268.474 16.7067 269.061 18.6L276.301 42H273.381L270.621 33ZM269.941 30.76L266.221 18.64C265.927 17.7333 265.647 17.1067 265.381 16.76C265.114 16.4133 264.754 16.24 264.301 16.24C263.874 16.24 263.527 16.4133 263.261 16.76C262.994 17.1067 262.714 17.7333 262.421 18.64L258.701 30.76H269.941ZM287.105 42.44C285.958 42.44 285.025 42.0533 284.305 41.28C283.611 40.5067 282.998 39.2133 282.465 37.4L275.505 14H278.385L285.305 37.36C285.545 38.2133 285.798 38.8267 286.065 39.2C286.358 39.5733 286.705 39.76 287.105 39.76C287.478 39.76 287.798 39.5867 288.065 39.24C288.331 38.8667 288.598 38.24 288.865 37.36L295.785 14H298.705L291.745 37.4C291.211 39.1867 290.585 40.48 289.865 41.28C289.145 42.0533 288.225 42.44 287.105 42.44ZM310.829 42C307.709 42 305.389 41.32 303.869 39.96C302.376 38.5733 301.629 36.4667 301.629 33.64V22.36C301.629 19.5333 302.376 17.44 303.869 16.08C305.389 14.6933 307.709 14 310.829 14H320.469V16.32H310.829C308.669 16.32 307.069 16.8133 306.029 17.8C305.016 18.7867 304.509 20.3067 304.509 22.36V26.84H318.429V29.16H304.509V33.64C304.509 35.6933 305.016 37.2133 306.029 38.2C307.069 39.1867 308.669 39.68 310.829 39.68H320.709V42H310.829Z" fill="black"/>
<path d="M101.839 35.5318C101.173 32.7307 98.0047 31.5021 93.6698 31.2564C76.4133 29.0941 62.2747 24.5729 51.6541 17.742C49.2199 15.252 45.2184 13.4992 39.7497 12.5C34.6645 13.0406 32.9639 16.1694 35.2147 20.4448C33.9364 21.4823 32.5693 22.6945 31.1132 24.0814C25.9612 26.6533 22.3599 22.4433 19.4422 19.1671C17.8082 17.2997 16.6411 15.94 15.3073 16.1038C14.8787 16.1776 14.4854 16.3845 14.1853 16.6941C13.8852 17.0037 13.6941 17.3997 13.64 17.8239C13.8567 19.8715 14.0068 22.5089 14.0568 25.6213C12.4719 29.0809 11.6644 32.8355 11.6893 36.6294C10.3581 39.2681 8.84282 41.8133 7.15426 44.2466C7.03202 44.4109 6.97936 44.6153 7.00734 44.8169C7.03532 45.0185 7.14177 45.2016 7.30431 45.3277C13.6567 50.9792 25.6445 53.2398 36.2317 52.2897C42.9009 51.5034 53.188 51.487 66.9432 52.2897C85.2833 51.6836 96.9543 47.2771 101.639 39.1848C102.039 38.0069 102.108 36.7451 101.839 35.5318ZM39.583 14.2364C44.7015 15.1865 48.3862 16.8082 50.5537 19.1507C51.0608 19.5048 51.5898 19.8276 52.1376 20.1172C45.3184 16.628 40.0498 16.4151 36.5152 19.462C35.1647 16.4315 35.9483 14.8425 39.583 14.1873V14.2364ZM15.474 17.742C16.0075 17.742 17.2914 19.249 18.1917 20.2974C21.1428 23.6883 25.5944 28.8483 31.9968 25.5557C33.6641 24.0159 35.3314 22.4925 36.8986 21.2967C40.3666 17.5781 46.2188 18.1842 54.2384 23.0822C56.3726 24.5729 62.8916 26.6697 73.0621 28.832C79.7613 30.7188 86.6018 32.0827 93.5197 32.9109C96.8543 33.2057 99.2218 33.7299 100.005 35.4663C93.3363 40.3806 81.3652 43.3292 64.5756 44.3776C52.5711 41.3144 43.301 39.8237 36.982 39.8892C32.3803 34.68 25.1443 30.1588 15.474 26.4731C15.5059 26.3882 15.545 26.306 15.5907 26.2274C15.7006 23.4555 15.6003 20.6794 15.2906 17.9221C15.3907 17.742 15.4573 17.742 15.474 17.742ZM14.7904 27.9638C23.3103 31.24 29.796 35.0732 34.3477 39.4305C27.6786 38.3003 20.676 37.1863 13.3566 36.1543C13.4311 33.3599 13.914 30.5905 14.7904 27.931V27.9638ZM66.9265 50.5042C53.138 49.7834 42.7508 49.7998 36.0483 50.5042C24.3773 51.3068 15.2073 49.2592 8.92158 44.394C10.4043 42.2127 11.7463 39.9422 12.9397 37.5959C21.2762 38.8244 29.1958 40.1185 36.6152 41.3635C42.8175 41.1669 52.3877 42.8378 64.4756 45.8847C81.0317 44.8691 93.1029 41.9369 100.239 37.17C100.21 37.5275 100.16 37.883 100.089 38.2347C95.7205 45.8519 84.4997 49.9636 66.9265 50.5042Z" fill="url(#paint0_linear_1555_4315)"/>
<path d="M0.333333 65.4577C0.333333 69.1396 3.3181 72.1244 7 72.1244C10.6819 72.1244 13.6667 69.1396 13.6667 65.4577C13.6667 61.7758 10.6819 58.7911 7 58.7911C3.3181 58.7911 0.333333 61.7758 0.333333 65.4577ZM323.101 66.0501C323.428 65.4422 323.2 64.6842 322.592 64.357C321.984 64.0299 321.226 64.2575 320.899 64.8654L323.101 66.0501ZM7 65.4577C7.12745 66.7012 7.12754 66.7012 7.12782 66.7012C7.12816 66.7012 7.12862 66.7011 7.1293 66.701C7.13067 66.7009 7.13277 66.7007 7.13563 66.7004C7.14133 66.6998 7.14999 66.6989 7.1616 66.6978C7.1848 66.6954 7.21973 66.6919 7.26614 66.6873C7.35895 66.678 7.49764 66.6643 7.68011 66.6465C8.04507 66.6111 8.58514 66.5597 9.28357 66.4959C10.6804 66.3685 12.7106 66.1918 15.2398 65.9955C20.2987 65.6028 27.3518 65.1316 35.3265 64.8174C51.3026 64.1881 70.8798 64.1941 85.5402 66.69L85.9598 64.2255C71.0263 61.6831 51.2285 61.6891 35.2281 62.3194C27.2145 62.635 20.1289 63.1085 15.0463 63.503C12.5047 63.7003 10.4633 63.8779 9.05638 64.0063C8.3529 64.0705 7.80798 64.1223 7.43843 64.1582C7.25365 64.1762 7.1127 64.1901 7.01769 64.1996C6.97019 64.2044 6.93416 64.208 6.90989 64.2105C6.89775 64.2117 6.88854 64.2126 6.88231 64.2133C6.87919 64.2136 6.87682 64.2138 6.87519 64.214C6.87438 64.2141 6.87372 64.2141 6.87331 64.2142C6.87284 64.2142 6.87255 64.2143 7 65.4577ZM85.5402 66.69C100.52 69.2403 116.351 67.9608 130.316 66.7027C137.325 66.0713 143.845 65.4464 149.619 65.2903C155.406 65.1338 160.316 65.4545 164.126 66.6504L164.874 64.2651C160.659 62.9419 155.411 62.6328 149.552 62.7912C143.679 62.95 137.064 63.5847 130.091 64.2128C116.093 65.4739 100.574 66.7134 85.9598 64.2255L85.5402 66.69ZM164.126 66.6504C172.012 69.1257 179.37 72.0332 186.012 72.8389C189.379 73.2474 192.647 73.1335 195.805 72.141C198.971 71.1459 201.955 69.2898 204.781 66.3193L202.969 64.5962C200.403 67.2936 197.775 68.9013 195.055 69.7561C192.327 70.6135 189.435 70.7358 186.313 70.3571C179.976 69.5883 173.039 66.8279 164.874 64.2651L164.126 66.6504ZM204.781 66.3193C205.899 65.1433 206.902 64.8674 207.864 64.9925C208.935 65.1317 210.167 65.7946 211.603 66.9597C213.02 68.1104 214.494 69.6314 216.063 71.2965C217.61 72.9392 219.246 74.7197 220.921 76.2889C224.184 79.3471 228.07 82.079 232.355 81.0183C234.489 80.4901 236.531 79.0598 238.506 76.6302C240.478 74.2046 242.437 70.7171 244.406 65.9334L242.094 64.9821C240.175 69.645 238.326 72.8883 236.566 75.0533C234.81 77.2141 233.198 78.2341 231.754 78.5915C228.883 79.3021 225.919 77.5469 222.63 74.4647C221.029 72.9638 219.464 71.2608 217.883 69.5824C216.323 67.9264 214.743 66.2887 213.178 65.0187C211.631 63.763 209.954 62.7432 208.187 62.5134C206.311 62.2694 204.547 62.9382 202.969 64.5962L204.781 66.3193ZM244.406 65.9334C246.342 61.2297 247.952 58.6143 249.265 57.3791C249.902 56.7795 250.38 56.5907 250.71 56.5542C251.021 56.5199 251.375 56.601 251.822 56.9155C252.805 57.6061 253.855 59.145 255.018 61.3842C256.16 63.5837 257.275 66.1716 258.513 68.8211C259.731 71.4246 261.055 74.0556 262.561 76.1503C264.046 78.217 265.855 79.9749 268.118 80.492C270.474 81.0305 272.915 80.1447 275.429 77.8498C277.928 75.5684 280.661 71.7626 283.726 66.0487L281.523 64.8668C278.507 70.4888 275.934 74.0041 273.744 76.0033C271.568 77.9888 269.935 78.3429 268.675 78.0548C267.32 77.7453 265.969 76.6101 264.591 74.6915C263.232 72.8009 261.99 70.3543 260.778 67.7621C259.587 65.216 258.409 62.4902 257.237 60.232C256.085 58.0136 254.797 55.951 253.26 54.8703C252.448 54.2992 251.496 53.9523 250.436 54.0693C249.395 54.1842 248.437 54.7259 247.552 55.5582C245.821 57.1865 244.046 60.2391 242.094 64.9821L244.406 65.9334ZM283.726 66.0487C286.752 60.4096 289.175 57.0425 291.115 55.2745C292.078 54.3964 292.853 53.9783 293.453 53.8244C294.016 53.6803 294.482 53.7513 294.93 53.9876C295.413 54.2423 295.929 54.7209 296.468 55.4773C297.003 56.228 297.516 57.1894 298.018 58.3248C299.026 60.6043 299.916 63.4149 300.84 66.3103C301.751 69.1661 302.697 72.1067 303.799 74.5042C304.869 76.8309 306.233 78.9932 308.168 79.8788C310.329 80.8682 312.628 80.0731 314.96 77.8909C317.286 75.7134 319.949 71.9058 323.101 66.0501L320.899 64.8654C317.781 70.6606 315.272 74.1742 313.251 76.0657C311.236 77.9525 310.014 77.9742 309.208 77.6056C308.177 77.1333 307.129 75.763 306.07 73.4598C305.044 71.2275 304.144 68.4411 303.221 65.5502C302.311 62.6988 301.379 59.7431 300.305 57.3139C299.766 56.095 299.173 54.9666 298.504 54.0266C297.838 53.0923 297.05 52.2794 296.097 51.7764C295.109 51.255 294.006 51.1021 292.833 51.4026C291.698 51.6933 290.57 52.3884 289.431 53.4267C287.165 55.4915 284.58 59.1699 281.523 64.8668L283.726 66.0487Z" fill="url(#paint1_linear_1555_4315)"/>
<defs>
<linearGradient id="paint0_linear_1555_4315" x1="7" y1="37.5" x2="102" y2="37.5" gradientUnits="userSpaceOnUse">
<stop stop-color="#008080"/>
<stop offset="0.485371"/>
</linearGradient>
<linearGradient id="paint1_linear_1555_4315" x1="7" y1="66.25" x2="322" y2="66.25" gradientUnits="userSpaceOnUse">
<stop offset="0.0212729" stop-color="#008080"/>
<stop offset="0.0639996"/>
</linearGradient>
</defs>
</svg>
