<svg width="24" height="24" viewBox="0 0 24 24" fill="none" xmlns="http://www.w3.org/2000/svg">
<g clip-path="url(#clip0_1890_4340)">
<path d="M3.42663 0.585685L12 9.15926L20.5734 0.585685C21.2884 -0.129346 22.4214 -0.19594 23.2678 0.465323L23.4143 0.59872C24.1952 1.37963 24.1952 2.64574 23.4143 3.42667L14.8408 12L23.4143 20.5733C24.1293 21.2884 24.1959 22.4214 23.5347 23.2678L23.4013 23.4143C22.6204 24.1952 21.3542 24.1952 20.5733 23.4143L12 14.8407L3.42663 23.4143C2.7116 24.1293 1.57859 24.1959 0.732172 23.5347L0.585688 23.4013C-0.195225 22.6204 -0.195234 21.3543 0.585688 20.5733L9.15924 12L0.585688 3.42666C-0.129344 2.71163 -0.195936 1.57858 0.465327 0.732165L0.598689 0.585685C1.3796 -0.195228 2.64572 -0.195228 3.42663 0.585685ZM2.02868 22.9999C2.02335 23 2.01802 23 2.01269 23L2.02868 22.9999ZM2.16143 22.9889L2.11761 22.9945C2.13214 22.993 2.14681 22.9911 2.16143 22.9889ZM1.86529 22.9891L1.88311 22.9916C1.87707 22.9908 1.87133 22.99 1.86529 22.9891ZM1.73962 22.9622L1.75524 22.9665C1.74985 22.965 1.74499 22.9637 1.73962 22.9622ZM2.28839 22.9614L2.23449 22.9752C2.2525 22.9711 2.2705 22.9665 2.28839 22.9614ZM2.40154 22.9215L2.35998 22.938C2.37383 22.9329 2.38772 22.9274 2.40154 22.9215ZM1.62365 22.9215C1.62604 22.9225 1.62858 22.9235 1.62365 22.9215V22.9215ZM1.50634 22.8626L1.40002 22.7904C1.44443 22.8249 1.49103 22.8552 1.53936 22.8812L1.50634 22.8626ZM2.51855 22.8628L2.48638 22.8809C2.49694 22.8753 2.50778 22.8692 2.51855 22.8628ZM22.8812 22.4606L22.8625 22.4936L22.7903 22.6C22.8249 22.5556 22.8552 22.5089 22.8812 22.4606ZM22.9365 22.3386L22.9215 22.3763C22.9268 22.3638 22.9318 22.3512 22.9365 22.3386ZM22.9748 22.211L22.9622 22.2603C22.9667 22.2444 22.971 22.2277 22.9748 22.211ZM22.9944 22.0929L22.9891 22.1347C22.9912 22.121 22.993 22.107 22.9944 22.0929ZM21.9873 1.99965L12 11.9872L2.01269 1.99965L1.99963 2.01269L11.9872 12L1.99963 21.9873L2.01269 22.0003L12 12.0128L21.9873 22.0003L22.0004 21.9873L12.0128 12L22.0004 2.01269L21.9873 1.99965ZM22.9999 21.9713L22.9999 22.0003C23.0001 21.9907 23 21.981 22.9999 21.9713ZM22.9889 21.8386L22.9945 21.8824C22.993 21.8679 22.9911 21.8532 22.9889 21.8386ZM22.9614 21.7116L22.9752 21.7655C22.9711 21.7475 22.9665 21.7295 22.9614 21.7116ZM22.9216 21.5984L22.938 21.64C22.9329 21.6262 22.9274 21.6123 22.9216 21.5984ZM22.8628 21.4814L22.8809 21.5136C22.8752 21.5031 22.8692 21.4922 22.8628 21.4814ZM1.11907 2.48638L1.13415 2.51342C1.12889 2.50434 1.12403 2.49558 1.11907 2.48638ZM1.06201 2.35996L1.07543 2.39441C1.0707 2.38293 1.06629 2.37157 1.06201 2.35996ZM1.02477 2.23451L1.03356 2.27011C1.03042 2.25826 1.02748 2.24645 1.02477 2.23451ZM1.00506 2.11362L1.00836 2.14228C1.00711 2.13269 1.00603 2.12323 1.00506 2.11362ZM1.00042 1.98367L0.999995 2.01269C0.999995 2.00295 1.00014 1.9934 1.00042 1.98367ZM1.01086 1.86527L1.00836 1.8831C1.00914 1.87705 1.00996 1.87131 1.01086 1.86527ZM1.03784 1.73965L1.03356 1.75527C1.035 1.74988 1.03631 1.74502 1.03784 1.73965ZM1.07849 1.62365C1.07642 1.62858 1.07748 1.62604 1.07849 1.62365V1.62365ZM1.13745 1.50636L1.20965 1.4C1.17512 1.44441 1.14483 1.49106 1.11883 1.53939L1.13745 1.50636ZM2.48596 1.11884L2.51904 1.13743L2.62536 1.20963C2.58095 1.1751 2.53429 1.14484 2.48596 1.11884ZM21.5136 1.11906L21.4866 1.13416C21.4956 1.1289 21.5044 1.12401 21.5136 1.11906ZM1.539 1.11906L1.51196 1.13416C1.52104 1.1289 1.52979 1.12401 1.539 1.11906ZM22.4606 1.11884L22.4936 1.13743L22.6 1.20963C22.5556 1.1751 22.509 1.14484 22.4606 1.11884ZM1.66143 1.06349L1.63098 1.07547C1.64106 1.07131 1.65125 1.0673 1.66143 1.06349ZM2.3598 1.06193L2.40173 1.07852C2.38775 1.07262 2.37382 1.06712 2.3598 1.06193ZM21.64 1.062L21.6056 1.07547C21.6171 1.07073 21.6284 1.06629 21.64 1.062ZM22.3386 1.06351L22.3763 1.07852C22.3637 1.07321 22.3512 1.06823 22.3386 1.06351ZM1.78924 1.02515L1.75524 1.03354C1.76643 1.03057 1.77798 1.02773 1.78924 1.02515ZM2.23443 1.02477L2.28857 1.03862C2.27055 1.03347 2.25252 1.02887 2.23443 1.02477ZM21.7655 1.02479L21.7299 1.03354C21.7418 1.0304 21.7536 1.02749 21.7655 1.02479ZM22.2111 1.02522L22.2604 1.03782C22.2444 1.03329 22.2277 1.02904 22.2111 1.02522ZM1.91137 1.00511L1.88311 1.00838C1.89245 1.00717 1.90201 1.00606 1.91137 1.00511ZM2.11346 1.00506L2.16131 1.01105C2.14544 1.00868 2.12948 1.00667 2.11346 1.00506ZM21.8864 1.00508L21.8577 1.00838C21.8673 1.00714 21.8768 1.00605 21.8864 1.00508ZM22.0889 1.00514L22.1347 1.01086C22.1196 1.00863 22.1043 1.0067 22.0889 1.00514ZM21.9583 1.00041L22.0165 1.00042C21.9971 0.99986 21.9777 0.999856 21.9583 1.00041ZM1.98352 1.00042L2.04168 1.00041C2.0223 0.999856 2.0029 0.99986 1.98352 1.00042Z" fill="white"/>
</g>
<defs>
<clipPath id="clip0_1890_4340">
<rect width="24" height="24" fill="white"/>
</clipPath>
</defs>
</svg>
