<svg width="50" height="50" viewBox="0 0 50 50" fill="none" xmlns="http://www.w3.org/2000/svg">
<g clip-path="url(#clip0_1341_2015)">
<path d="M25 49.9997C24.8306 49.9965 24.6623 49.9702 24.5 49.9215C18.727 48.0007 13.7057 44.3101 10.1492 39.3736C6.59273 34.4371 4.68171 28.5057 4.68751 22.4215V9.37466C4.68751 8.96026 4.85213 8.56283 5.14516 8.26981C5.43818 7.97678 5.83561 7.81216 6.25001 7.81216C9.51398 7.82382 12.7477 7.18605 15.7628 5.93601C18.7779 4.68596 21.5143 2.84861 23.8125 0.530912C24.1263 0.209142 24.551 0.0191501 25 -0.000338334C25.2087 -0.00983237 25.4171 0.0226107 25.6131 0.0950725C25.809 0.167534 25.9884 0.278544 26.1406 0.421537C28.4395 2.75901 31.1802 4.61613 34.2033 5.88491C37.2263 7.15368 40.4715 7.8088 43.75 7.81216C44.1644 7.81216 44.5618 7.97678 44.8549 8.26981C45.1479 8.56283 45.3125 8.96026 45.3125 9.37466V22.4215C45.3348 28.5191 43.4314 34.468 39.8737 39.4201C36.316 44.3722 31.2857 48.0747 25.5 49.9997C25.3341 50.0222 25.1659 50.0222 25 49.9997ZM7.81251 10.9372V22.4684C7.81817 27.7992 9.47315 32.9976 12.5504 37.3505C15.6276 41.7034 19.9764 44.9975 25 46.7809C30.0312 44.9949 34.3852 41.6936 37.4631 37.3314C40.541 32.9692 42.1915 27.7603 42.1875 22.4215V10.9372C35.7962 10.5899 29.7225 8.03902 25 3.71841C20.2754 8.03571 14.203 10.5861 7.81251 10.9372Z" fill="#008080"/>
<path d="M21.875 15.625H28.125V20.5938C28.125 20.9336 27.99 21.2594 27.7497 21.4997C27.5094 21.74 27.1836 21.875 26.8438 21.875H23.1562C22.8164 21.875 22.4906 21.74 22.2503 21.4997C22.01 21.2594 21.875 20.9336 21.875 20.5938V15.625Z" fill="#A62639" fill-opacity="0.3"/>
<path d="M31.7031 35.9375H18.2969C17.1751 35.9334 16.1005 35.4859 15.3073 34.6927C14.5141 33.8995 14.0666 32.8249 14.0625 31.7031V18.2969C14.0666 17.1751 14.5141 16.1005 15.3073 15.3073C16.1005 14.5141 17.1751 14.0666 18.2969 14.0625H31.7031C32.8249 14.0666 33.8995 14.5141 34.6927 15.3073C35.4859 16.1005 35.9334 17.1751 35.9375 18.2969V31.7031C35.9334 32.8249 35.4859 33.8995 34.6927 34.6927C33.8995 35.4859 32.8249 35.9334 31.7031 35.9375ZM18.2969 17.1875C18.0027 17.1875 17.7205 17.3044 17.5124 17.5124C17.3044 17.7205 17.1875 18.0027 17.1875 18.2969V31.7031C17.1875 31.9974 17.3044 32.2795 17.5124 32.4876C17.7205 32.6956 18.0027 32.8125 18.2969 32.8125H31.7031C31.9974 32.8125 32.2795 32.6956 32.4876 32.4876C32.6956 32.2795 32.8125 31.9974 32.8125 31.7031V18.2969C32.8125 18.0027 32.6956 17.7205 32.4876 17.5124C32.2795 17.3044 31.9974 17.1875 31.7031 17.1875H18.2969Z" fill="#008080"/>
</g>
<defs>
<clipPath id="clip0_1341_2015">
<rect width="50" height="50" fill="white"/>
</clipPath>
</defs>
</svg>
