<svg width="24" height="24" viewBox="0 0 24 24" fill="none" xmlns="http://www.w3.org/2000/svg">
<g clip-path="url(#clip0_1917_2518)">
<path d="M20.4824 19.3559C18.9086 21.1663 16.7972 22.4262 14.4566 22.9515C12.116 23.4769 9.66872 23.2402 7.47217 22.276C5.27562 21.3116 3.44492 19.6703 2.24739 17.5916C1.04987 15.513 0.548251 13.1059 0.81579 10.722C1.08312 8.33779 2.10573 6.10154 3.73426 4.33982C5.3628 2.57811 7.51194 1.38322 9.86779 0.929688M14.1285 0.938808C15.7106 1.24349 17.2087 1.88445 18.5215 2.81833C19.8344 3.75221 20.9313 4.9572 21.738 6.35177C22.5448 7.74636 23.0426 9.29799 23.1978 10.9017C23.3529 12.5053 23.1617 14.1236 22.6371 15.647" stroke="black" stroke-width="2" stroke-linecap="round"/>
<path d="M9.56822 11.3756V9.20194C9.56822 7.88388 10.657 6.81543 12.0003 6.81543C13.3436 6.81543 14.4324 7.88388 14.4324 9.20194V11.3756M8.96019 11.3756H15.0405C15.7142 11.3756 16.2565 11.918 16.2565 12.5917V15.9358C16.2565 16.6095 15.7142 17.1519 15.0405 17.1519H8.96019C8.2865 17.1519 7.74414 16.6095 7.74414 15.9358V12.5917C7.74414 11.918 8.2865 11.3756 8.96019 11.3756Z" stroke="black" stroke-width="2"/>
</g>
<defs>
<clipPath id="clip0_1917_2518">
<rect width="24" height="24" fill="white"/>
</clipPath>
</defs>
</svg>
