<svg width="50" height="50" viewBox="0 0 50 50" fill="none" xmlns="http://www.w3.org/2000/svg">
<g clip-path="url(#clip0_1341_2008)">
<path d="M21.875 15.625H28.125V20.3125C28.125 20.7269 27.9604 21.1243 27.6674 21.4174C27.3743 21.7104 26.9769 21.875 26.5625 21.875H23.4375C23.0231 21.875 22.6257 21.7104 22.3326 21.4174C22.0396 21.1243 21.875 20.7269 21.875 20.3125V15.625Z" fill="#A62639" fill-opacity="0.3"/>
<path d="M31.25 35.9375H18.75C17.5068 35.9375 16.3145 35.4436 15.4354 34.5646C14.5564 33.6855 14.0625 32.4932 14.0625 31.25V18.75C14.0625 17.5068 14.5564 16.3145 15.4354 15.4354C16.3145 14.5564 17.5068 14.0625 18.75 14.0625H31.25C32.4932 14.0625 33.6855 14.5564 34.5646 15.4354C35.4436 16.3145 35.9375 17.5068 35.9375 18.75V31.25C35.9375 32.4932 35.4436 33.6855 34.5646 34.5646C33.6855 35.4436 32.4932 35.9375 31.25 35.9375ZM18.75 17.1875C18.3356 17.1875 17.9382 17.3521 17.6451 17.6451C17.3521 17.9382 17.1875 18.3356 17.1875 18.75V31.25C17.1875 31.6644 17.3521 32.0618 17.6451 32.3549C17.9382 32.6479 18.3356 32.8125 18.75 32.8125H31.25C31.6644 32.8125 32.0618 32.6479 32.3549 32.3549C32.6479 32.0618 32.8125 31.6644 32.8125 31.25V18.75C32.8125 18.3356 32.6479 17.9382 32.3549 17.6451C32.0618 17.3521 31.6644 17.1875 31.25 17.1875H18.75Z" fill="#008080"/>
<path d="M23.4375 29.6875H21.875C21.4606 29.6875 21.0632 29.5229 20.7701 29.2299C20.4771 28.9368 20.3125 28.5394 20.3125 28.125C20.3125 27.7106 20.4771 27.3132 20.7701 27.0201C21.0632 26.7271 21.4606 26.5625 21.875 26.5625H23.4375C23.8519 26.5625 24.2493 26.7271 24.5424 27.0201C24.8354 27.3132 25 27.7106 25 28.125C25 28.5394 24.8354 28.9368 24.5424 29.2299C24.2493 29.5229 23.8519 29.6875 23.4375 29.6875Z" fill="#008080"/>
<path d="M46.875 37.8744L45.3125 44.1244C45.2456 44.3917 45.1092 44.6366 44.9171 44.8342C44.725 45.0317 44.4841 45.175 44.2188 45.2494C44.0676 45.2985 43.9087 45.3197 43.75 45.3119C43.5444 45.3131 43.3405 45.2737 43.1501 45.1959C42.9598 45.1182 42.7866 45.0036 42.6406 44.8588L41.5156 43.7494C40.2309 44.9006 38.8272 45.9115 37.3281 46.7651L36.5312 47.1869C32.9723 49.0453 29.0149 50.0105 25 49.9994C18.3696 49.9994 12.0107 47.3655 7.32233 42.6771C2.63392 37.9887 1.16899e-06 31.6298 1.16899e-06 24.9994C-0.000599358 23.0468 0.230176 21.1009 0.687501 19.2026C0.808033 18.8284 1.06517 18.5134 1.40764 18.3204C1.75011 18.1274 2.15274 18.0706 2.53523 18.1613C2.91773 18.252 3.25199 18.4835 3.47135 18.8097C3.69071 19.136 3.77905 19.5329 3.71875 19.9213C3.32526 21.5854 3.12602 23.2895 3.125 24.9994C3.12387 28.8261 4.1266 32.5861 6.03306 35.9041C7.93953 39.222 10.683 41.9818 13.9896 43.9079C17.2962 45.834 21.0502 46.859 24.8769 46.8805C28.7035 46.9021 32.4688 45.9194 35.7969 44.0307L35.9375 43.9369C37.1398 43.2492 38.2704 42.4432 39.3125 41.5307L37.9531 40.1713C37.7523 39.9709 37.6098 39.7195 37.541 39.4443C37.4722 39.169 37.4796 38.8802 37.5625 38.6088C37.6369 38.3435 37.7802 38.1026 37.9778 37.9105C38.1753 37.7184 38.4202 37.582 38.6875 37.5151L44.9375 35.9526C45.2048 35.8755 45.4878 35.8713 45.7573 35.9402C46.0268 36.0091 46.273 36.1487 46.4705 36.3446C46.668 36.5405 46.8096 36.7856 46.8807 37.0546C46.9518 37.3235 46.9499 37.6065 46.875 37.8744Z" fill="#008080"/>
<path d="M50.0001 25.0001C50.0007 26.9527 49.77 28.8986 49.3126 30.7969C49.2302 31.1465 49.0298 31.457 48.7452 31.6761C48.4606 31.8953 48.1092 32.0097 47.7501 32.0001C47.6309 32.0163 47.51 32.0163 47.3908 32.0001C46.9895 31.9036 46.6427 31.6523 46.426 31.301C46.2094 30.9497 46.1405 30.5269 46.2345 30.1251C46.6474 28.4476 46.8624 26.7275 46.8751 25.0001C46.8763 21.1734 45.8735 17.4134 43.9671 14.0954C42.0606 10.7775 39.3171 8.01765 36.0105 6.09157C32.7039 4.16548 28.9499 3.1405 25.1233 3.11896C21.2967 3.09742 17.5313 4.08007 14.2033 5.96881C12.9478 6.68399 11.7697 7.52701 10.6876 8.48444L12.047 9.82819C12.2479 10.0286 12.3903 10.28 12.4592 10.5552C12.528 10.8305 12.5205 11.1193 12.4376 11.3907C12.3632 11.656 12.22 11.8969 12.0224 12.089C11.8248 12.2811 11.5799 12.4175 11.3126 12.4844L5.06264 14.0469L4.68764 14.0626C4.482 14.0638 4.27815 14.0243 4.08778 13.9466C3.89741 13.8688 3.72426 13.7543 3.57826 13.6094C3.37471 13.4107 3.22929 13.1601 3.1577 12.8847C3.08611 12.6094 3.09106 12.3197 3.17201 12.0469L4.73451 5.79694C4.80384 5.5325 4.94134 5.29088 5.13327 5.09621C5.32519 4.90154 5.56484 4.76064 5.82826 4.68756C6.09963 4.60466 6.38845 4.59722 6.66372 4.66604C6.939 4.73486 7.19033 4.87734 7.39076 5.07819L8.46889 6.25006C9.76372 5.10905 11.1721 4.10379 12.672 3.25006C16.4752 1.09426 20.7773 -0.0265488 25.1489 -0.000533797C29.5205 0.0254812 33.8089 1.19741 37.5862 3.39832C41.3635 5.59924 44.4976 8.75219 46.6759 12.5426C48.8541 16.333 50.0003 20.6283 50.0001 25.0001Z" fill="#008080"/>
</g>
<defs>
<clipPath id="clip0_1341_2008">
<rect width="50" height="50" fill="white"/>
</clipPath>
</defs>
</svg>
