<svg width="50" height="50" viewBox="0 0 50 50" fill="none" xmlns="http://www.w3.org/2000/svg">
<g clip-path="url(#clip0_1341_2000)">
<path d="M15.625 1.5625H25V9.57812C25 9.93865 24.8568 10.2844 24.6018 10.5393C24.3469 10.7943 24.0012 10.9375 23.6406 10.9375H16.9844C16.6238 10.9375 16.2781 10.7943 16.0232 10.5393C15.7682 10.2844 15.625 9.93865 15.625 9.57812V1.5625Z" fill="#A62639" fill-opacity="0.3"/>
<path d="M17.1875 40.625H4.6875C3.4443 40.625 2.25201 40.1311 1.37294 39.2521C0.49386 38.373 0 37.1807 0 35.9375L0 4.6875C0 3.4443 0.49386 2.25201 1.37294 1.37294C2.25201 0.49386 3.4443 0 4.6875 0L35.9375 0C37.1807 0 38.373 0.49386 39.2521 1.37294C40.1311 2.25201 40.625 3.4443 40.625 4.6875V17.1875C40.625 17.6019 40.4604 17.9993 40.1674 18.2924C39.8743 18.5854 39.4769 18.75 39.0625 18.75C38.6481 18.75 38.2507 18.5854 37.9576 18.2924C37.6646 17.9993 37.5 17.6019 37.5 17.1875V4.6875C37.5 4.2731 37.3354 3.87567 37.0424 3.58265C36.7493 3.28962 36.3519 3.125 35.9375 3.125H4.6875C4.2731 3.125 3.87567 3.28962 3.58265 3.58265C3.28962 3.87567 3.125 4.2731 3.125 4.6875V35.9375C3.125 36.3519 3.28962 36.7493 3.58265 37.0424C3.87567 37.3354 4.2731 37.5 4.6875 37.5H17.1875C17.6019 37.5 17.9993 37.6646 18.2924 37.9576C18.5854 38.2507 18.75 38.6481 18.75 39.0625C18.75 39.4769 18.5854 39.8743 18.2924 40.1674C17.9993 40.4604 17.6019 40.625 17.1875 40.625Z" fill="#008080"/>
<path d="M10.9375 34.375H7.8125C7.3981 34.375 7.00067 34.2104 6.70765 33.9174C6.41462 33.6243 6.25 33.2269 6.25 32.8125C6.25 32.3981 6.41462 32.0007 6.70765 31.7076C7.00067 31.4146 7.3981 31.25 7.8125 31.25H10.9375C11.3519 31.25 11.7493 31.4146 12.0424 31.7076C12.3354 32.0007 12.5 32.3981 12.5 32.8125C12.5 33.2269 12.3354 33.6243 12.0424 33.9174C11.7493 34.2104 11.3519 34.375 10.9375 34.375Z" fill="#008080"/>
<path d="M35.9375 50C33.1562 50 30.4374 49.1753 28.1248 47.63C25.8122 46.0848 24.0098 43.8886 22.9455 41.319C21.8811 38.7494 21.6026 35.9219 22.1452 33.194C22.6878 30.4662 24.0271 27.9605 25.9938 25.9938C27.9605 24.0271 30.4662 22.6878 33.194 22.1452C35.9219 21.6026 38.7494 21.8811 41.319 22.9455C43.8886 24.0098 46.0848 25.8122 47.63 28.1248C49.1753 30.4374 50 33.1562 50 35.9375C50 39.6671 48.5184 43.244 45.8812 45.8812C43.244 48.5184 39.6671 50 35.9375 50ZM35.9375 25C33.7743 25 31.6596 25.6415 29.861 26.8433C28.0623 28.0451 26.6604 29.7533 25.8326 31.7519C25.0047 33.7505 24.7881 35.9496 25.2102 38.0713C25.6322 40.193 26.6739 42.1418 28.2035 43.6715C29.7332 45.2011 31.682 46.2428 33.8037 46.6648C35.9254 47.0869 38.1245 46.8703 40.1231 46.0424C42.1217 45.2146 43.8299 43.8127 45.0317 42.0141C46.2335 40.2154 46.875 38.1007 46.875 35.9375C46.875 33.0367 45.7227 30.2547 43.6715 28.2035C41.6203 26.1523 38.8383 25 35.9375 25Z" fill="#008080"/>
<path d="M35.9375 43.75C40.2522 43.75 43.75 40.2522 43.75 35.9375C43.75 31.6228 40.2522 28.125 35.9375 28.125C31.6228 28.125 28.125 31.6228 28.125 35.9375C28.125 40.2522 31.6228 43.75 35.9375 43.75Z" fill="#A62639" fill-opacity="0.3"/>
<path d="M35.9371 40.6246C35.7314 40.6257 35.5276 40.5863 35.3372 40.5086C35.1468 40.4308 34.9737 40.3162 34.8277 40.1714L31.7027 37.0464C31.4085 36.7522 31.2432 36.3532 31.2432 35.9371C31.2432 35.521 31.4085 35.1219 31.7027 34.8277C31.9969 34.5335 32.396 34.3682 32.8121 34.3682C33.2282 34.3682 33.6272 34.5335 33.9214 34.8277L35.9371 36.8589L41.0777 31.7027C41.3719 31.4085 41.771 31.2432 42.1871 31.2432C42.6032 31.2432 43.0022 31.4085 43.2964 31.7027C43.5907 31.9969 43.7559 32.396 43.7559 32.8121C43.7559 33.2282 43.5907 33.6272 43.2964 33.9214L37.0464 40.1714C36.9004 40.3162 36.7273 40.4308 36.5369 40.5086C36.3465 40.5863 36.1427 40.6257 35.9371 40.6246Z" fill="#008080"/>
</g>
<defs>
<clipPath id="clip0_1341_2000">
<rect width="50" height="50" fill="white"/>
</clipPath>
</defs>
</svg>
