<svg width="700" height="120" viewBox="0 0 700 120" fill="none" xmlns="http://www.w3.org/2000/svg">
<path opacity="0.2" d="M148.788 29.3321L147.588 28.7424L147.147 29.6399L148.347 30.2296L148.788 29.3321ZM260.447 56.7652L260.464 56.7673L260.481 56.7683C266.952 57.1351 272.505 58.2342 276.672 60.2572C280.825 62.2734 283.574 65.1901 284.531 69.2086C285.312 72.7413 285.115 76.4148 283.96 79.847C277.003 91.8362 264.854 101.134 247.559 107.666C230.246 114.205 207.804 117.959 180.336 118.869C139.08 116.462 108.193 116.509 88.1435 118.872C72.3131 120.292 55.4369 119.311 40.1497 115.865C24.854 112.417 11.1882 106.511 1.74528 98.1097L1.73272 98.0985L1.71944 98.0882C1.33367 97.7889 1.08308 97.3561 1.01728 96.882C0.951492 96.408 1.07503 95.9265 1.36389 95.5383L1.36884 95.5316L1.37355 95.5248C6.45247 88.2058 11.0102 80.5503 15.0142 72.6133L15.0686 72.5056L15.0678 72.3848C14.9937 61.0765 17.4006 49.8849 22.125 39.5721L22.1722 39.4691L22.1704 39.3558C22.0207 30.0383 21.5723 22.1316 20.9235 15.9783C21.0816 14.8352 21.6027 13.7683 22.415 12.9303C23.2381 12.0812 24.317 11.5117 25.4947 11.3064C27.287 11.0907 29.022 11.8833 30.9663 13.5052C32.8646 15.0888 34.8768 17.389 37.2518 20.1038C37.3176 20.1791 37.3838 20.2547 37.4502 20.3306L37.4531 20.3339C37.6256 20.5276 37.799 20.7225 37.9733 20.9184C42.2062 25.6764 46.9861 31.0492 52.5631 34.3811C58.4109 37.8748 65.1574 39.1381 73.0628 35.1917L73.13 35.1582L73.1843 35.1064C77.5451 30.9528 81.6366 27.3252 85.4592 24.2227L85.7775 23.9644L85.5865 23.6016C82.2508 17.2655 81.9079 11.9056 84.1292 7.96084C86.3472 4.02199 91.2199 1.31706 98.7304 0.504875C115.055 3.49662 126.917 8.72313 134.105 16.0754L134.144 16.1158L134.192 16.1464C166.136 36.6923 208.631 50.2724 260.447 56.7652ZM98.7489 4.79413V4.46357L98.1602 4.5697C92.683 5.55711 89.1645 7.27403 87.6028 10.057C86.0355 12.8502 86.55 16.5144 88.5888 21.0894L88.8626 21.7037L89.372 21.2646C99.7361 12.3307 115.28 12.8563 135.685 23.2968L136.147 22.4096C134.537 21.5588 132.982 20.6114 131.491 19.5728C124.935 12.5133 113.906 7.657 98.7489 4.79413ZM142.502 31.3367L142.489 31.3279L142.476 31.3199C130.417 23.955 119.939 19.7852 111.136 18.8774C102.326 17.9689 95.1822 20.3296 89.8592 26.018C85.1614 29.606 80.1723 34.163 75.2014 38.7536C65.7957 43.5675 57.8548 42.1918 51.1479 38.3644C44.4329 34.5324 38.963 28.2471 34.5407 23.1656L34.4544 23.0665C34.454 23.066 34.4536 23.0656 34.4532 23.0651C34.4019 23.0054 34.3502 22.9451 34.298 22.8844C32.981 21.3504 31.3991 19.5079 29.9421 18.0287C29.1852 17.2603 28.4494 16.5767 27.7921 16.082C27.4635 15.8346 27.1436 15.6261 26.8419 15.4776C26.5462 15.3322 26.2312 15.2259 25.9221 15.2259C25.8936 15.2259 25.8189 15.2261 25.7237 15.2525C25.6315 15.278 25.5392 15.3223 25.4484 15.3878C25.2728 15.5143 25.1042 15.7184 24.9347 16.0238L24.8571 16.1635L24.875 16.3223C25.7966 24.5288 26.0982 32.7911 25.7773 41.0413C25.6528 41.2674 25.5447 41.502 25.454 41.7433L25.2789 42.2092L25.744 42.3865C54.7128 53.4277 76.3393 66.9539 90.0713 82.4987L90.2226 82.67L90.4512 82.6676C109.342 82.4717 137.101 86.9304 173.103 96.1174L173.179 96.1368L173.258 96.1319C223.638 92.986 259.68 84.1366 279.813 69.3015L280.138 69.0617L279.972 68.6933C278.718 65.915 276.211 64.1506 272.822 62.9718C269.441 61.7958 265.114 61.1779 260.111 60.7352C239.385 58.2536 218.892 54.1674 198.822 48.5146L198.806 48.5102L198.79 48.5068C183.544 45.2654 171.042 42.0747 161.558 39.138C152.053 36.1952 145.632 33.5233 142.502 31.3367ZM24.0507 45.9246L23.936 46.2231L23.3964 46.1365C20.7518 54.1611 19.2947 62.5176 19.0699 70.9497L19.058 71.3958L19.4999 71.4581C41.4525 74.5533 62.4556 77.8943 82.4595 81.2846L84.0654 81.5568L82.8889 80.4305C69.1705 67.2978 49.6486 55.768 24.0507 45.9246ZM180.253 114.512L180.274 114.513L180.295 114.512C206.685 113.7 228.339 110.207 245.052 104.039C261.766 97.8697 273.571 89.0118 280.2 77.4529L280.24 77.3827L280.257 77.3033C280.474 76.2286 280.627 75.1423 280.715 74.05L280.798 73.0202L279.939 73.5941C258.657 87.8105 222.583 96.6002 172.974 99.6503C136.777 90.5295 108.051 85.508 89.3795 86.0892C67.1339 82.3566 43.3879 78.4767 18.3921 74.7929L18.0365 74.7405L17.8736 75.0609C14.3028 82.0811 10.2875 88.8745 5.85123 95.401L5.58698 95.7897L5.9587 96.0775C24.9503 110.777 52.6017 116.924 87.6793 114.511L87.6883 114.511L87.6973 114.51C107.764 112.401 138.894 112.35 180.253 114.512Z" stroke="#008080"/>
</svg>
