<svg width="476" height="200" viewBox="0 0 476 200" fill="none" xmlns="http://www.w3.org/2000/svg">
<path opacity="0.2" d="M247.5 49.186L245.499 48.2031L245.058 49.1007L247.059 50.0835L247.5 49.186ZM433.787 94.278L433.803 94.2801L433.82 94.2811C444.627 94.8936 453.931 96.7299 460.932 100.129C467.919 103.521 472.585 108.452 474.21 115.271C475.528 121.23 475.192 127.428 473.239 133.217C461.597 153.298 441.27 168.846 412.383 179.755C383.478 190.672 346.031 196.933 300.222 198.448C231.456 194.436 179.994 194.516 146.607 198.451C120.189 200.821 92.0256 199.185 66.5096 193.434C40.9851 187.68 18.1492 177.818 2.35391 163.765L2.34135 163.754L2.32807 163.744C1.61722 163.192 1.15373 162.393 1.03196 161.516C0.910208 160.639 1.13907 159.748 1.67241 159.031L1.67735 159.025L1.68207 159.018C10.1381 146.832 17.7265 134.087 24.3928 120.872L24.4472 120.764L24.4464 120.644C24.3225 101.747 28.3445 83.0467 36.2387 65.8146L36.2859 65.7116L36.284 65.5983C36.0343 50.0558 35.2858 36.8741 34.2034 26.6255C34.4699 24.6342 35.3733 22.7755 36.7857 21.3184C38.209 19.8502 40.0744 18.8669 42.1094 18.514C45.2354 18.1346 48.2208 19.525 51.4906 22.2527C54.675 24.9092 58.044 28.7603 61.9908 33.2719C62.1049 33.4023 62.2194 33.5333 62.3345 33.6648L62.3374 33.6681C62.621 33.9866 62.906 34.3069 63.1925 34.6289C70.2573 42.5698 78.193 51.4896 87.4428 57.0157C97.1087 62.7905 108.232 64.8728 121.289 58.3546L121.356 58.3211L121.411 58.2693C128.684 51.3418 135.509 45.2899 141.889 40.1124L142.207 39.854L142.016 39.4913C136.429 28.8797 135.811 19.8177 139.592 13.1045C143.368 6.39746 151.634 1.85768 164.23 0.504855C191.492 5.49511 211.357 14.2272 223.413 26.5593L223.453 26.5997L223.5 26.6303C276.686 60.8381 347.458 83.4606 433.787 94.278ZM163.915 8.26667V7.83808L163.326 7.94421C154.214 9.58687 148.487 12.4259 145.962 16.9248C143.432 21.4339 144.23 27.4078 147.619 35.0134L147.893 35.6277L148.402 35.1886C165.836 20.1609 191.917 21.1124 225.96 38.5312L226.422 37.644C223.717 36.2141 221.104 34.6211 218.599 32.8744C207.707 21.1294 189.308 13.0298 163.915 8.26667ZM236.978 52.5011L236.966 52.4923L236.953 52.4843C216.874 40.2215 199.46 33.2996 184.86 31.7939C170.252 30.2875 158.447 34.2044 149.656 43.6113C141.824 49.5911 133.5 57.195 125.195 64.8651C109.387 72.9715 96.0191 70.6621 84.748 64.2302C73.5069 57.8154 64.3594 47.3042 56.9984 38.8458L56.8378 38.6613C56.8374 38.6608 56.837 38.6604 56.8366 38.6599C56.7517 38.561 56.666 38.4613 56.5797 38.3608C54.3826 35.8018 51.7527 32.7387 49.3327 30.2818C48.0756 29.0055 46.8625 27.8797 45.7863 27.0696C45.2483 26.6646 44.7335 26.3301 44.256 26.0952C43.7845 25.8632 43.3126 25.7098 42.8701 25.7098C42.8333 25.7098 42.744 25.71 42.6284 25.742C42.516 25.7732 42.3977 25.8288 42.2756 25.9167C42.0374 26.0884 41.7855 26.3825 41.5159 26.8681L41.4384 27.0078L41.4562 27.1666C42.9972 40.8872 43.4994 54.7012 42.9588 68.4948C42.7429 68.8786 42.5568 69.2779 42.4021 69.6895L42.2269 70.1554L42.692 70.3326C91.0013 88.7454 127.1 111.314 150.035 137.277L150.187 137.448L150.415 137.446C181.944 137.119 228.243 144.559 288.254 159.873L288.331 159.892L288.409 159.887C372.369 154.645 432.353 139.898 465.824 115.234L466.149 114.994L465.983 114.626C463.945 110.111 459.862 107.216 454.26 105.268C448.666 103.322 441.488 102.294 433.15 101.557C398.589 97.419 364.415 90.605 330.946 81.1786L330.93 81.1742L330.914 81.1708C305.498 75.767 284.651 70.4467 268.831 65.5485C252.991 60.644 242.243 56.1783 236.978 52.5011ZM39.6316 76.8522L39.5405 77.0889L38.9773 76.9985C34.5797 90.342 32.1568 104.237 31.783 118.258L31.7711 118.704L32.213 118.767C68.8044 123.926 103.813 129.495 137.155 135.146L138.761 135.418L137.584 134.292C114.763 112.444 82.2691 93.248 39.6316 76.8522ZM300.106 190.52L300.127 190.521L300.148 190.521C344.111 189.168 380.162 183.349 407.971 173.085C435.781 162.821 455.381 148.098 466.378 128.922L466.418 128.852L466.434 128.773C466.794 126.995 467.047 125.197 467.193 123.39L467.276 122.36L466.417 122.934C430.863 146.684 370.646 161.338 287.925 166.42C227.552 151.205 179.687 142.842 148.61 143.816C111.525 137.594 71.9402 131.126 30.2716 124.985L29.916 124.932L29.753 125.253C23.7955 136.966 17.0961 148.3 9.69439 159.189L9.43014 159.578L9.80186 159.866C41.3648 184.296 87.3563 194.538 145.776 190.52L145.785 190.519L145.794 190.518C179.266 187 231.17 186.917 300.106 190.52Z" stroke="#008080"/>
</svg>
