<svg width="1200" height="600" viewBox="0 0 1200 600" fill="none" xmlns="http://www.w3.org/2000/svg">
<path opacity="0.2" d="M866.635 188.06L866.652 188.062L866.669 188.063C888.313 189.29 906.995 192.969 921.083 199.808C935.155 206.64 944.614 216.607 947.907 230.428C950.567 242.454 949.886 254.962 945.936 266.641C922.581 306.953 881.809 338.124 823.943 359.978C766.058 381.839 691.097 394.366 599.438 397.397C461.896 389.371 358.999 389.533 292.266 397.4C239.38 402.145 182.997 398.871 131.909 387.355C80.8128 375.838 35.0517 356.085 3.37547 327.904L3.36291 327.893L3.34963 327.882C1.82608 326.7 0.830351 324.986 0.568667 323.1C0.306999 321.215 0.799166 319.302 1.94369 317.764L1.94863 317.758L1.95335 317.751C18.8522 293.399 34.017 267.927 47.3392 241.519L47.3935 241.411L47.3927 241.29C47.1446 203.425 55.2041 165.951 71.0228 131.421L71.07 131.318L71.0682 131.205C70.5683 100.1 69.0695 73.7313 66.9034 53.2444C67.4406 49.1322 69.2996 45.2938 72.2124 42.2889C75.1362 39.2727 78.9677 37.255 83.1457 36.5333C89.6063 35.7443 95.7178 38.6294 102.302 44.1215C108.701 49.4601 115.462 57.1885 123.339 66.1927C123.573 66.4608 123.809 66.7301 124.045 67.0004L124.048 67.0037C124.61 67.634 125.174 68.2679 125.74 68.9048C139.885 84.8031 155.71 102.591 174.142 113.602C193.353 125.08 215.418 129.21 241.355 116.262L241.422 116.228L241.476 116.177C256.03 102.314 269.692 90.2014 282.462 79.8366L282.78 79.5782L282.589 79.2155C271.376 57.9152 270.07 39.5979 277.747 25.9637C285.421 12.3358 302.169 3.20915 327.478 0.504841C382.084 10.4913 421.956 27.9874 446.184 52.7691L446.223 52.8095L446.271 52.8401C552.56 121.202 694.024 166.431 866.635 188.06ZM326.33 16.9485V16.8726V16.2744L325.741 16.3805C307.542 19.6613 296.292 25.3055 291.36 34.0942C286.423 42.8932 287.929 54.6414 294.695 69.8232L294.969 70.4375L295.478 69.9984C330.585 39.7363 383.01 41.7526 451.149 76.6173L451.61 75.7301C446.166 72.8522 440.908 69.6454 435.868 66.1281C414.138 42.6702 377.315 26.4621 326.33 16.9485ZM472.671 105.412L472.658 105.403L472.645 105.395C432.517 80.8876 397.764 67.0856 368.668 64.0852C339.565 61.084 316.11 68.8914 298.65 87.5947C282.981 99.5536 266.321 114.775 249.679 130.144C217.865 146.482 190.93 141.838 168.248 128.895C145.692 116.023 127.351 94.9469 112.642 78.0461L112.296 77.6483C112.296 77.6478 112.295 77.6472 112.295 77.6466C112.126 77.45 111.956 77.2517 111.784 77.0519C107.387 71.9303 102.137 65.8156 97.3092 60.9145C94.8017 58.3687 92.3954 56.1371 90.272 54.5387C89.2103 53.7395 88.2084 53.0902 87.2912 52.639C86.3801 52.1907 85.5161 51.9196 84.7402 51.9196C84.6826 51.9196 84.5567 51.9198 84.3904 51.9659C84.2271 52.0111 84.0437 52.0949 83.8435 52.2391C83.449 52.5234 82.9887 53.0427 82.469 53.9788L82.3914 54.1185L82.4093 54.2773C85.4985 81.7839 86.5024 109.478 85.4125 137.131C84.9679 137.908 84.5866 138.718 84.2721 139.555L84.097 140.021L84.5621 140.198C181.223 177.04 253.501 222.214 299.445 274.223L299.597 274.395L299.825 274.392C362.949 273.738 455.599 288.631 575.632 319.261L575.709 319.28L575.787 319.275C743.695 308.791 863.535 279.301 930.351 230.066L930.676 229.826L930.51 229.457C926.514 220.602 918.491 214.881 907.356 211.008C896.229 207.137 881.923 205.086 865.249 203.611C796.098 195.332 727.721 181.699 660.756 162.838L660.741 162.834L660.725 162.831C609.882 152.021 568.174 141.377 536.514 131.575C504.835 121.766 483.27 112.816 472.671 105.412ZM78.0837 154.171L78.052 154.253L77.4294 154.154C68.6495 180.794 63.8122 208.537 63.0658 236.53L63.0539 236.976L63.4958 237.038C136.684 247.358 206.705 258.496 273.393 269.798L274.999 270.071L273.823 268.944C228.243 225.31 163.32 186.948 78.0837 154.171ZM599.239 380.541L599.259 380.542L599.28 380.542C687.176 377.838 759.22 366.203 814.768 345.701C870.317 325.199 909.404 295.815 931.322 257.596L931.362 257.526L931.378 257.446C932.094 253.91 932.597 250.335 932.887 246.74L932.97 245.71L932.111 246.284C860.877 293.868 740.305 323.184 574.803 333.343C453.991 302.894 358.274 286.177 296.186 288.134C222.004 275.686 142.821 262.748 59.4703 250.464L59.1147 250.412L58.9517 250.732C47.027 274.177 33.6176 296.864 18.8023 318.659L18.538 319.048L18.9098 319.336C81.901 368.092 173.743 388.572 290.518 380.541L290.527 380.54L290.536 380.539C357.52 373.499 461.36 373.334 599.239 380.541Z" stroke="#008080"/>
</svg>
