<svg width="700" height="296" viewBox="0 0 700 296" fill="none" xmlns="http://www.w3.org/2000/svg">
<path opacity="0.2" d="M364.216 72.6753L361.268 71.2269L360.185 73.4314L363.133 74.8798L364.216 72.6753ZM638.467 140.055L638.508 140.06L638.55 140.063C654.445 140.964 668.082 143.663 678.317 148.632C688.517 153.583 695.268 160.746 697.62 170.615C699.538 179.293 699.054 188.316 696.219 196.747C679.13 226.194 649.29 249.032 606.812 265.074C564.287 281.134 509.169 290.356 441.702 292.59C340.372 286.678 264.509 286.794 215.265 292.597C176.384 296.085 134.933 293.676 97.3853 285.213C59.8169 276.745 26.2518 262.237 3.05859 241.603L3.02774 241.575L2.99512 241.55C2.04761 240.815 1.43212 239.752 1.2705 238.587C1.10893 237.423 1.41235 236.24 2.12185 235.287L2.13398 235.271L2.14557 235.254C14.6201 217.277 25.8146 198.475 35.649 178.98L35.7825 178.715L35.7806 178.419C35.5986 150.644 41.5103 123.156 53.1141 97.8261L53.23 97.5731L53.2256 97.2949C52.8578 74.4098 51.7566 54.9898 50.163 39.8766C50.5513 37.0689 51.8312 34.4485 53.8264 32.3901C55.848 30.3046 58.4979 28.9058 61.3906 28.4016C65.7927 27.8719 70.0541 29.8187 74.8294 33.8023C79.4919 37.6918 84.4342 43.3413 90.2673 50.0091C90.4291 50.1941 90.5916 50.3799 90.7548 50.5664L90.762 50.5744C91.1856 51.0501 91.6115 51.5289 92.0396 52.0101C102.436 63.6965 114.176 76.8928 127.874 85.0765C142.237 93.6575 158.808 96.7602 178.224 87.0673L178.389 86.985L178.523 86.8578C189.234 76.656 199.283 67.7462 208.672 60.126L209.453 59.4915L208.984 58.6004C200.792 43.038 199.949 29.8734 205.405 20.1845C210.853 10.5102 222.821 3.86648 241.268 1.87163C281.364 9.21977 310.498 22.0568 328.152 40.115L328.249 40.2143L328.366 40.2894C406.826 90.753 511.199 124.108 638.467 140.055ZM241.313 12.4067V11.5947L239.867 11.8554C226.414 14.2806 217.772 18.4976 213.937 25.333C210.087 32.1935 211.351 41.1933 216.358 52.4302L217.031 53.939L218.282 52.8605C243.738 30.9175 281.917 32.2084 332.034 57.8517L333.167 55.6727C329.214 53.583 325.395 51.256 321.733 48.7052C305.629 31.366 278.54 19.4383 241.313 12.4067ZM348.776 77.5989L348.745 77.5773L348.713 77.5576C319.094 59.4685 293.359 49.2268 271.738 46.9971C250.1 44.7657 232.553 50.5639 219.479 64.5354C207.94 73.3482 195.686 84.5408 183.477 95.8158C160.375 107.639 140.872 104.26 124.398 94.8599C107.905 85.4481 94.4705 70.0105 83.6088 57.5297L83.3968 57.2861C83.3959 57.285 83.3949 57.2839 83.394 57.2829C83.268 57.1361 83.1408 56.988 83.0126 56.8387C79.7779 53.0712 75.8925 48.5457 72.314 44.9127C70.4549 43.0253 68.6476 41.3464 67.0332 40.1312C66.226 39.5236 65.4404 39.0115 64.6993 38.6468C63.9732 38.2896 63.1994 38.0285 62.4401 38.0285C62.3703 38.0285 62.1867 38.029 61.9528 38.0938C61.7265 38.1565 61.4999 38.2654 61.2769 38.4261C60.8454 38.737 60.4315 39.2381 60.015 39.9882L59.8245 40.3313L59.8683 40.7213C62.1321 60.8778 62.8729 81.1712 62.0846 101.435C61.7788 101.99 61.5134 102.566 61.2906 103.159L60.8605 104.303L62.0027 104.739C133.154 131.858 186.272 165.08 220 203.26L220.371 203.681L220.933 203.675C267.33 203.194 335.511 214.145 423.938 236.709L424.125 236.757L424.318 236.745C548.059 229.018 636.584 207.283 686.032 170.846L686.831 170.257L686.423 169.352C683.343 162.528 677.184 158.194 668.861 155.299C660.557 152.411 649.93 150.893 637.641 149.806C586.736 143.711 536.401 133.674 487.106 119.79L487.068 119.779L487.029 119.771C449.582 111.81 418.876 103.973 395.581 96.7601C372.236 89.5321 356.465 82.9694 348.776 77.5989ZM57.8439 113.429L57.562 114.162L56.2368 113.949C49.7412 133.659 46.1624 154.183 45.6102 174.894L45.581 175.99L46.6664 176.143C100.585 183.745 152.172 191.951 201.304 200.278L205.248 200.946L202.359 198.18C168.664 165.924 120.716 137.606 57.8439 113.429ZM441.499 281.889L441.55 281.891L441.601 281.89C506.419 279.896 559.605 271.315 600.653 256.165C641.705 241.013 670.702 219.257 686.983 190.867L687.082 190.694L687.121 190.499C687.655 187.86 688.031 185.192 688.247 182.509L688.451 179.98L686.341 181.389C634.07 216.306 545.466 237.895 423.619 245.387C334.715 222.985 264.162 210.651 218.301 212.079C163.662 202.911 105.339 193.381 43.9456 184.333L43.0721 184.205L42.6719 184.992C33.9017 202.234 24.0395 218.92 13.1434 234.95L12.4943 235.905L13.4073 236.611C60.0533 272.716 127.969 287.813 214.125 281.888L214.147 281.886L214.169 281.884C263.456 276.704 339.915 276.579 441.499 281.889Z" stroke="#008080" stroke-width="2.45614"/>
</svg>
