<svg width="200" height="200" viewBox="0 0 200 200" fill="none" xmlns="http://www.w3.org/2000/svg">
<g opacity="0.2" clip-path="url(#clip0_118_386)">
<path d="M62.5 6.25H100V38.3125C100 39.7546 99.4271 41.1377 98.4074 42.1574C97.3877 43.1771 96.0046 43.75 94.5625 43.75H67.9375C66.4954 43.75 65.1123 43.1771 64.0926 42.1574C63.0729 41.1377 62.5 39.7546 62.5 38.3125V6.25Z" fill="#A62639" fill-opacity="0.3"/>
<path d="M68.75 162.5H18.75C13.7772 162.5 9.00805 160.525 5.49175 157.008C1.97544 153.492 0 148.723 0 143.75L0 18.75C0 13.7772 1.97544 9.00805 5.49175 5.49175C9.00805 1.97544 13.7772 0 18.75 0L143.75 0C148.723 0 153.492 1.97544 157.008 5.49175C160.525 9.00805 162.5 13.7772 162.5 18.75V68.75C162.5 70.4076 161.842 71.9973 160.669 73.1694C159.497 74.3415 157.908 75 156.25 75C154.592 75 153.003 74.3415 151.831 73.1694C150.658 71.9973 150 70.4076 150 68.75V18.75C150 17.0924 149.342 15.5027 148.169 14.3306C146.997 13.1585 145.408 12.5 143.75 12.5H18.75C17.0924 12.5 15.5027 13.1585 14.3306 14.3306C13.1585 15.5027 12.5 17.0924 12.5 18.75V143.75C12.5 145.408 13.1585 146.997 14.3306 148.169C15.5027 149.342 17.0924 150 18.75 150H68.75C70.4076 150 71.9973 150.658 73.1694 151.831C74.3415 153.003 75 154.592 75 156.25C75 157.908 74.3415 159.497 73.1694 160.669C71.9973 161.842 70.4076 162.5 68.75 162.5Z" fill="#008080" fill-opacity="0.5"/>
<path d="M43.75 137.5H31.25C29.5924 137.5 28.0027 136.842 26.8306 135.669C25.6585 134.497 25 132.908 25 131.25C25 129.592 25.6585 128.003 26.8306 126.831C28.0027 125.658 29.5924 125 31.25 125H43.75C45.4076 125 46.9973 125.658 48.1694 126.831C49.3415 128.003 50 129.592 50 131.25C50 132.908 49.3415 134.497 48.1694 135.669C46.9973 136.842 45.4076 137.5 43.75 137.5Z" fill="#008080" fill-opacity="0.5"/>
<path d="M143.75 200C132.625 200 121.749 196.701 112.499 190.52C103.249 184.339 96.0392 175.554 91.7818 165.276C87.5244 154.998 86.4104 143.688 88.5809 132.776C90.7513 121.865 96.1086 111.842 103.975 103.975C111.842 96.1086 121.865 90.7513 132.776 88.5809C143.688 86.4104 154.998 87.5244 165.276 91.7818C175.554 96.0392 184.339 103.249 190.52 112.499C196.701 121.749 200 132.625 200 143.75C200 158.668 194.074 172.976 183.525 183.525C172.976 194.074 158.668 200 143.75 200ZM143.75 100C135.097 100 126.638 102.566 119.444 107.373C112.249 112.181 106.642 119.013 103.33 127.008C100.019 135.002 99.1526 143.799 100.841 152.285C102.529 160.772 106.696 168.567 112.814 174.686C118.933 180.804 126.728 184.971 135.215 186.659C143.701 188.347 152.498 187.481 160.492 184.17C168.487 180.858 175.32 175.251 180.127 168.056C184.934 160.862 187.5 152.403 187.5 143.75C187.5 132.147 182.891 121.019 174.686 112.814C166.481 104.609 155.353 100 143.75 100Z" fill="#008080" fill-opacity="0.5"/>
<path d="M143.75 175C161.009 175 175 161.009 175 143.75C175 126.491 161.009 112.5 143.75 112.5C126.491 112.5 112.5 126.491 112.5 143.75C112.5 161.009 126.491 175 143.75 175Z" fill="#A62639" fill-opacity="0.3"/>
<path d="M143.75 162.5C142.927 162.505 142.112 162.347 141.351 162.036C140.589 161.725 139.896 161.267 139.312 160.687L126.812 148.187C125.636 147.011 124.974 145.414 124.974 143.75C124.974 142.086 125.636 140.489 126.812 139.312C127.989 138.136 129.586 137.474 131.25 137.474C132.914 137.474 134.511 138.136 135.687 139.312L143.75 147.437L164.312 126.812C165.489 125.636 167.086 124.974 168.75 124.974C170.414 124.974 172.011 125.636 173.187 126.812C174.364 127.989 175.026 129.586 175.026 131.25C175.026 132.914 174.364 134.511 173.187 135.687L148.187 160.687C147.603 161.267 146.911 161.725 146.149 162.036C145.388 162.347 144.572 162.505 143.75 162.5Z" fill="#008080" fill-opacity="0.5"/>
</g>
<defs>
<clipPath id="clip0_118_386">
<rect width="200" height="200" fill="white"/>
</clipPath>
</defs>
</svg>
