<svg width="200" height="201" viewBox="0 0 200 201" fill="none" xmlns="http://www.w3.org/2000/svg">
<g opacity="0.2" clip-path="url(#clip0_119_415)">
<path d="M87.5 63.1667H112.5V81.9167C112.5 83.5744 111.842 85.1641 110.669 86.3362C109.497 87.5083 107.908 88.1667 106.25 88.1667H93.75C92.0924 88.1667 90.5027 87.5083 89.3306 86.3362C88.1585 85.1641 87.5 83.5744 87.5 81.9167V63.1667Z" fill="#A62639" fill-opacity="0.3"/>
<path d="M125 144.417H75C70.0272 144.417 65.2581 142.441 61.7417 138.925C58.2254 135.409 56.25 130.64 56.25 125.667V75.6667C56.25 70.6939 58.2254 65.9248 61.7417 62.4085C65.2581 58.8922 70.0272 56.9167 75 56.9167H125C129.973 56.9167 134.742 58.8922 138.258 62.4085C141.775 65.9248 143.75 70.6939 143.75 75.6667V125.667C143.75 130.64 141.775 135.409 138.258 138.925C134.742 142.441 129.973 144.417 125 144.417ZM75 69.4167C73.3424 69.4167 71.7527 70.0752 70.5806 71.2473C69.4085 72.4194 68.75 74.0091 68.75 75.6667V125.667C68.75 127.324 69.4085 128.914 70.5806 130.086C71.7527 131.258 73.3424 131.917 75 131.917H125C126.658 131.917 128.247 131.258 129.419 130.086C130.592 128.914 131.25 127.324 131.25 125.667V75.6667C131.25 74.0091 130.592 72.4194 129.419 71.2473C128.247 70.0752 126.658 69.4167 125 69.4167H75Z" fill="#008080" fill-opacity="0.5"/>
<path d="M93.75 119.417H87.5C85.8424 119.417 84.2527 118.758 83.0806 117.586C81.9085 116.414 81.25 114.824 81.25 113.167C81.25 111.509 81.9085 109.919 83.0806 108.747C84.2527 107.575 85.8424 106.917 87.5 106.917H93.75C95.4076 106.917 96.9973 107.575 98.1694 108.747C99.3415 109.919 100 111.509 100 113.167C100 114.824 99.3415 116.414 98.1694 117.586C96.9973 118.758 95.4076 119.417 93.75 119.417Z" fill="#008080" fill-opacity="0.5"/>
<path d="M187.5 152.167L181.25 177.167C180.982 178.236 180.437 179.215 179.668 180.006C178.9 180.796 177.936 181.369 176.875 181.667C176.27 181.863 175.635 181.948 175 181.917C174.177 181.921 173.362 181.764 172.601 181.453C171.839 181.142 171.146 180.683 170.562 180.104L166.062 175.667C160.924 180.271 155.309 184.315 149.312 187.729L146.125 189.417C131.889 196.85 116.06 200.711 100 200.667C73.4783 200.667 48.043 190.131 29.2893 171.377C10.5357 152.624 4.67597e-06 127.188 4.67597e-06 100.667C-0.00239743 92.856 0.920704 85.0726 2.75 77.4792C3.23213 75.9825 4.26069 74.7225 5.63056 73.9506C7.00043 73.1786 8.61095 72.9514 10.1409 73.3141C11.6709 73.6769 13.008 74.6031 13.8854 75.9079C14.7628 77.2127 15.1162 78.8004 14.875 80.3542C13.3011 87.0105 12.5041 93.8268 12.5 100.667C12.4955 115.973 16.5064 131.013 24.1323 144.285C31.7581 157.557 42.7321 168.596 55.9585 176.301C69.1849 184.005 84.201 188.105 99.5075 188.191C114.814 188.277 129.875 184.347 143.188 176.792L143.75 176.417C148.559 173.666 153.082 170.442 157.25 166.792L151.812 161.354C151.009 160.552 150.439 159.547 150.164 158.446C149.889 157.345 149.918 156.19 150.25 155.104C150.548 154.043 151.121 153.079 151.911 152.311C152.701 151.543 153.681 150.997 154.75 150.729L179.75 144.479C180.819 144.171 181.951 144.154 183.029 144.43C184.107 144.705 185.092 145.264 185.882 146.048C186.672 146.831 187.238 147.811 187.523 148.887C187.807 149.963 187.799 151.095 187.5 152.167Z" fill="#008080" fill-opacity="0.5"/>
<path d="M200 100.667C200.002 108.477 199.079 116.261 197.25 123.854C196.92 125.253 196.119 126.495 194.98 127.371C193.842 128.248 192.436 128.705 191 128.667C190.523 128.732 190.04 128.732 189.563 128.667C187.957 128.281 186.57 127.276 185.704 125.87C184.837 124.465 184.562 122.774 184.938 121.167C186.589 114.457 187.449 107.577 187.5 100.667C187.505 85.36 183.494 70.32 175.868 57.0481C168.242 43.7763 157.268 32.7371 144.042 25.0328C130.815 17.3284 115.799 13.2285 100.493 13.1423C85.1862 13.0562 70.1249 16.9868 56.8126 24.5418C51.7909 27.4025 47.0784 30.7746 42.7501 34.6043L48.1876 39.9793C48.991 40.781 49.5609 41.7863 49.8361 42.8874C50.1114 43.9885 50.0817 45.1438 49.7501 46.2293C49.4524 47.2905 48.8793 48.2542 48.089 49.0226C47.2987 49.7909 46.3193 50.3366 45.2501 50.6043L20.2501 56.8543L18.7501 56.9168C17.9275 56.9215 17.1121 56.7638 16.3506 56.4528C15.5892 56.1418 14.8966 55.6835 14.3126 55.1043C13.4983 54.3091 12.9167 53.3068 12.6303 52.2054C12.3439 51.104 12.3637 49.9453 12.6876 48.8543L18.9376 23.8543C19.2149 22.7965 19.7649 21.83 20.5326 21.0514C21.3003 20.2727 22.2589 19.709 23.3126 19.4168C24.398 19.0852 25.5533 19.0554 26.6544 19.3307C27.7555 19.6059 28.7608 20.1759 29.5626 20.9793L33.8751 25.6668C39.0544 21.1027 44.688 17.0817 50.6876 13.6668C65.9004 5.04354 83.1086 0.560309 100.595 0.664369C118.082 0.768429 135.235 5.45614 150.344 14.2598C165.454 23.0635 177.99 35.6753 186.703 50.8369C195.416 65.9985 200.001 83.1799 200 100.667Z" fill="#008080" fill-opacity="0.5"/>
</g>
<defs>
<clipPath id="clip0_119_415">
<rect width="200" height="200" fill="white" transform="translate(0 0.666748)"/>
</clipPath>
</defs>
</svg>
