<svg width="340" height="200" viewBox="0 0 340 200" fill="none" xmlns="http://www.w3.org/2000/svg">
<g opacity="0.2" clip-path="url(#clip0_118_382)">
<path d="M131.667 8.3335H181.667V40.6668C181.667 43.1422 180.683 45.5162 178.933 47.2665C177.183 49.0168 174.809 50.0002 172.333 50.0002H141C138.525 50.0002 136.151 49.0168 134.4 47.2665C132.65 45.5162 131.667 43.1422 131.667 40.6668V8.3335Z" fill="#A62639" fill-opacity="0.3"/>
<path d="M335.083 108.333L322.25 95.5L308.167 53.0833C307.063 49.7574 304.939 46.8641 302.096 44.8145C299.254 42.7649 295.838 41.6635 292.333 41.6667H240V25C240 18.3696 237.366 12.0107 232.678 7.32233C227.989 2.63392 221.63 0 215 0H98.3334C91.703 0 85.3441 2.63392 80.6557 7.32233C75.9673 12.0107 73.3334 18.3696 73.3334 25V150C73.3334 156.63 75.9673 162.989 80.6557 167.678C85.3441 172.366 91.703 175 98.3334 175H107.833C109.862 182.855 114.685 189.702 121.4 194.255C128.115 198.808 136.26 200.757 144.308 199.734C152.357 198.712 159.756 194.789 165.119 188.702C170.483 182.614 173.442 174.78 173.442 166.667C173.442 158.554 170.483 150.719 165.119 144.631C159.756 138.544 152.357 134.621 144.308 133.599C136.26 132.577 128.115 134.525 121.4 139.078C114.685 143.632 109.862 150.478 107.833 158.333H98.3334C96.1232 158.333 94.0036 157.455 92.4408 155.893C90.878 154.33 90 152.21 90 150V25C90 22.7899 90.878 20.6702 92.4408 19.1074C94.0036 17.5446 96.1232 16.6667 98.3334 16.6667H215C217.21 16.6667 219.33 17.5446 220.893 19.1074C222.455 20.6702 223.333 22.7899 223.333 25V158.333H198.333C196.123 158.333 194.004 159.211 192.441 160.774C190.878 162.337 190 164.457 190 166.667C190 168.877 190.878 170.996 192.441 172.559C194.004 174.122 196.123 175 198.333 175H249.5C251.419 182.061 255.608 188.295 261.422 192.739C267.235 197.184 274.349 199.592 281.667 199.592C288.984 199.592 296.098 197.184 301.912 192.739C307.725 188.295 311.914 182.061 313.833 175H323.333C327.754 175 331.993 173.244 335.118 170.118C338.244 166.993 340 162.754 340 158.333V120.083C339.981 115.67 338.213 111.445 335.083 108.333ZM140 150C143.296 150 146.519 150.977 149.26 152.809C152 154.64 154.137 157.243 155.398 160.289C156.659 163.334 156.99 166.685 156.346 169.918C155.703 173.151 154.116 176.121 151.785 178.452C149.454 180.783 146.485 182.37 143.252 183.013C140.019 183.656 136.667 183.326 133.622 182.065C130.577 180.803 127.974 178.667 126.142 175.926C124.311 173.185 123.333 169.963 123.333 166.667C123.333 162.246 125.089 158.007 128.215 154.882C131.341 151.756 135.58 150 140 150ZM303.417 91.6667H273.333V58.3333H292.333L303.417 91.6667ZM281.667 183.333C278.37 183.333 275.148 182.356 272.407 180.524C269.666 178.693 267.53 176.09 266.269 173.045C265.007 169.999 264.677 166.648 265.32 163.415C265.963 160.182 267.551 157.212 269.882 154.882C272.212 152.551 275.182 150.963 278.415 150.32C281.648 149.677 284.999 150.007 288.045 151.269C291.09 152.53 293.693 154.666 295.525 157.407C297.356 160.148 298.333 163.37 298.333 166.667C298.333 171.087 296.577 175.326 293.452 178.452C290.326 181.577 286.087 183.333 281.667 183.333ZM323.333 158.333H313.833C311.914 151.272 307.725 145.038 301.912 140.594C296.098 136.15 288.984 133.742 281.667 133.742C274.349 133.742 267.235 136.15 261.422 140.594C255.608 145.038 251.419 151.272 249.5 158.333H240V58.3333H256.667V100C256.667 102.21 257.545 104.33 259.107 105.893C260.67 107.455 262.79 108.333 265 108.333H311.583L323.333 120.083V158.333Z" fill="#008080" fill-opacity="0.5"/>
<path d="M58.3334 158.667H41.6667C39.4566 158.667 37.337 157.789 35.7742 156.226C34.2113 154.663 33.3334 152.543 33.3334 150.333C33.3334 148.123 34.2113 146.004 35.7742 144.441C37.337 142.878 39.4566 142 41.6667 142H58.3334C60.5435 142 62.6631 142.878 64.2259 144.441C65.7887 146.004 66.6667 148.123 66.6667 150.333C66.6667 152.543 65.7887 154.663 64.2259 156.226C62.6631 157.789 60.5435 158.667 58.3334 158.667Z" fill="#A62639" fill-opacity="0.3"/>
<path d="M58.3333 125.334H25C22.7898 125.334 20.6702 124.456 19.1074 122.893C17.5446 121.33 16.6666 119.21 16.6666 117C16.6666 114.79 17.5446 112.671 19.1074 111.108C20.6702 109.545 22.7898 108.667 25 108.667H58.3333C60.5434 108.667 62.663 109.545 64.2258 111.108C65.7887 112.671 66.6666 114.79 66.6666 117C66.6666 119.21 65.7887 121.33 64.2258 122.893C62.663 124.456 60.5434 125.334 58.3333 125.334Z" fill="#A62639" fill-opacity="0.3"/>
<path d="M58.3333 92.0002H8.33333C6.1232 92.0002 4.00358 91.1222 2.44078 89.5594C0.877974 87.9966 0 85.877 0 83.6668C0 81.4567 0.877974 79.3371 2.44078 77.7743C4.00358 76.2115 6.1232 75.3335 8.33333 75.3335H58.3333C60.5435 75.3335 62.6631 76.2115 64.2259 77.7743C65.7887 79.3371 66.6667 81.4567 66.6667 83.6668C66.6667 85.877 65.7887 87.9966 64.2259 89.5594C62.6631 91.1222 60.5435 92.0002 58.3333 92.0002Z" fill="#A62639" fill-opacity="0.3"/>
</g>
<defs>
<clipPath id="clip0_118_382">
<rect width="340" height="200" fill="white"/>
</clipPath>
</defs>
</svg>
