<svg width="200" height="201" viewBox="0 0 200 201" fill="none" xmlns="http://www.w3.org/2000/svg">
<g opacity="0.2" clip-path="url(#clip0_119_402)">
<path d="M100 200.334C99.3223 200.321 98.6494 200.216 98.0001 200.021C74.9079 192.338 54.823 177.575 40.5969 157.829C26.3709 138.084 18.7269 114.358 18.7501 90.0211V37.8336C18.7501 36.176 19.4085 34.5863 20.5806 33.4142C21.7527 32.2421 23.3424 31.5836 25.0001 31.5836C38.0559 31.6302 50.9907 29.0792 63.0512 24.079C75.1117 19.0788 86.0571 11.7294 95.2501 2.45861C96.5052 1.17153 98.204 0.411561 100 0.333608C100.835 0.295631 101.669 0.425404 102.452 0.715251C103.236 1.0051 103.953 1.44914 104.563 2.02111C113.758 11.371 124.721 18.7995 136.813 23.8746C148.905 28.9497 161.886 31.5702 175 31.5836C176.658 31.5836 178.247 32.2421 179.419 33.4142C180.592 34.5863 181.25 36.176 181.25 37.8336V90.0211C181.339 114.411 173.725 138.207 159.495 158.015C145.264 177.824 125.143 192.634 102 200.334C101.336 200.424 100.664 200.424 100 200.334ZM31.2501 44.0836V90.2086C31.2727 111.532 37.8926 132.325 50.2016 149.737C62.5106 167.149 79.9056 180.325 100 187.459C120.125 180.314 137.541 167.109 149.853 149.66C162.164 132.212 168.766 111.376 168.75 90.0211V44.0836C143.185 42.6947 118.89 32.491 100 15.2086C81.1015 32.4778 56.8119 42.6794 31.2501 44.0836Z" fill="#008080" fill-opacity="0.5"/>
<path d="M87.5 62.8335H112.5V82.7085C112.5 84.0677 111.96 85.3713 110.999 86.3324C110.038 87.2935 108.734 87.8335 107.375 87.8335H92.625C91.2658 87.8335 89.9622 87.2935 89.0011 86.3324C88.04 85.3713 87.5 84.0677 87.5 82.7085V62.8335Z" fill="#A62639" fill-opacity="0.3"/>
<path d="M126.813 144.083H73.1875C68.7005 144.067 64.4019 142.277 61.2291 139.104C58.0562 135.932 56.2665 131.633 56.25 127.146V73.521C56.2665 69.034 58.0562 64.7354 61.2291 61.5626C64.4019 58.3897 68.7005 56.6 73.1875 56.5835H126.813C131.3 56.6 135.598 58.3897 138.771 61.5626C141.944 64.7354 143.734 69.034 143.75 73.521V127.146C143.734 131.633 141.944 135.932 138.771 139.104C135.598 142.277 131.3 144.067 126.813 144.083ZM73.1875 69.0835C72.0106 69.0835 70.8819 69.551 70.0497 70.3832C69.2175 71.2154 68.75 72.3441 68.75 73.521V127.146C68.75 128.323 69.2175 129.452 70.0497 130.284C70.8819 131.116 72.0106 131.583 73.1875 131.583H126.813C127.989 131.583 129.118 131.116 129.95 130.284C130.782 129.452 131.25 128.323 131.25 127.146V73.521C131.25 72.3441 130.782 71.2154 129.95 70.3832C129.118 69.551 127.989 69.0835 126.813 69.0835H73.1875Z" fill="#008080" fill-opacity="0.5"/>
</g>
<defs>
<clipPath id="clip0_119_402">
<rect width="200" height="200" fill="white" transform="translate(0 0.333496)"/>
</clipPath>
</defs>
</svg>
