<svg width="22" height="13" viewBox="0 0 22 13" fill="none" xmlns="http://www.w3.org/2000/svg">
<path d="M1.25874 0.827334L1.25872 0.827353C0.580427 1.57502 0.580424 2.77818 1.25872 3.52583L1.25881 3.52592L8.67355 11.6906C8.67355 11.6906 8.67356 11.6906 8.67356 11.6906C9.95664 13.1036 12.0469 13.103 13.3294 11.6895L13.3294 11.6895L20.7413 3.51982C21.4196 2.77217 21.4196 1.569 20.7413 0.821322C20.0502 0.0595593 18.9187 0.0595596 18.2276 0.821322L11.8838 7.81364L11.8838 7.81367C11.3912 8.35679 10.6034 8.35679 10.1108 7.81367L10.1108 7.81364L3.7724 0.827358C3.7724 0.827355 3.77239 0.827352 3.77239 0.827349C3.08132 0.0655723 1.94993 0.0656112 1.25874 0.827334Z" stroke="black" stroke-width="0.5"/>
</svg>
