<svg width="28" height="25" viewBox="0 0 28 25" fill="none" xmlns="http://www.w3.org/2000/svg">
<path fill-rule="evenodd" clip-rule="evenodd" d="M8.45167 19.9839C8.45167 19.4494 8.01839 19.0161 7.48393 19.0161H1.03232C0.497853 19.0161 0.0645752 19.4494 0.0645752 19.9839C0.0645752 20.5183 0.497853 20.9516 1.03232 20.9516H7.48393C8.01839 20.9516 8.45167 20.5183 8.45167 19.9839Z" fill="black"/>
<path fill-rule="evenodd" clip-rule="evenodd" d="M19.4194 5.79001C19.4194 5.25554 19.8527 4.82227 20.3872 4.82227H26.8388C27.3732 4.82227 27.8065 5.25554 27.8065 5.79001C27.8065 6.32447 27.3732 6.75775 26.8388 6.75775H20.3872C19.8527 6.75775 19.4194 6.32447 19.4194 5.79001Z" fill="black"/>
<path fill-rule="evenodd" clip-rule="evenodd" d="M27.8066 19.9839C27.8066 19.4494 27.3733 19.0161 26.8388 19.0161H15.2259C14.6915 19.0161 14.2582 19.4494 14.2582 19.9839C14.2582 20.5183 14.6915 20.9516 15.2259 20.9516H26.8388C27.3733 20.9516 27.8066 20.5183 27.8066 19.9839Z" fill="black"/>
<path fill-rule="evenodd" clip-rule="evenodd" d="M0.0645752 5.79001C0.0645752 5.25554 0.497853 4.82227 1.03232 4.82227H12.6452C13.1797 4.82227 13.613 5.25554 13.613 5.79001C13.613 6.32447 13.1797 6.75775 12.6452 6.75775H1.03232C0.497853 6.75775 0.0645752 6.32447 0.0645752 5.79001Z" fill="black"/>
<path fill-rule="evenodd" clip-rule="evenodd" d="M11.3549 16.9511C12.9583 16.9511 14.2582 18.251 14.2582 19.8543C14.2582 21.4577 12.9583 22.7576 11.3549 22.7576C9.75154 22.7576 8.45172 21.4577 8.45172 19.8543C8.45172 18.251 9.75154 16.9511 11.3549 16.9511ZM16.1937 19.8543C16.1937 17.1819 14.0273 15.0156 11.3549 15.0156C8.6826 15.0156 6.51624 17.1819 6.51624 19.8543C6.51624 22.5267 8.6826 24.693 11.3549 24.693C14.0273 24.693 16.1937 22.5267 16.1937 19.8543Z" fill="#008080"/>
<path fill-rule="evenodd" clip-rule="evenodd" d="M16.5162 2.75775C14.9128 2.75775 13.613 4.05757 13.613 5.66097C13.613 7.26438 14.9128 8.5642 16.5162 8.5642C18.1196 8.5642 19.4194 7.26438 19.4194 5.66097C19.4194 4.05757 18.1196 2.75775 16.5162 2.75775ZM11.6775 5.66097C11.6775 2.98863 13.8438 0.822266 16.5162 0.822266C19.1886 0.822266 21.3549 2.98863 21.3549 5.66097C21.3549 8.33332 19.1886 10.4997 16.5162 10.4997C13.8438 10.4997 11.6775 8.33332 11.6775 5.66097Z" fill="#008080"/>
</svg>
